<svg width="357" height="308" viewBox="0 0 357 308" fill="none" xmlns="http://www.w3.org/2000/svg">
<g clip-path="url(#clip0_32061_1620)">
<mask id="mask0_32061_1620" style="mask-type:luminance" maskUnits="userSpaceOnUse" x="0" y="0" width="357" height="307">
<path d="M356.211 0.865234H0.712891V306.075H356.211V0.865234Z" fill="white"/>
</mask>
<g mask="url(#mask0_32061_1620)">
<path d="M123.662 263.575C144.685 249.901 136.938 200.7 106.357 153.682C75.776 106.663 33.9424 79.6321 12.9188 93.3059C-8.1047 106.98 -0.35701 156.18 30.2237 203.199C60.8047 250.218 102.638 277.249 123.662 263.575Z" fill="#1B1B1C" stroke="#0500FF" stroke-width="0.697887" stroke-linecap="round" stroke-linejoin="round"/>
<path d="M66.9578 245.946C62.1829 229.933 54.0231 212.343 42.7698 195.044C31.5164 177.746 18.7461 163.152 6.04297 152.303" stroke="#0500FF" stroke-width="0.697887" stroke-linecap="round" stroke-linejoin="round"/>
<path d="M2.07031 111.391C23.9196 116.345 52.2474 140.018 74.5824 174.354C96.9099 208.69 107.072 244.182 102.738 266.16" stroke="#0500FF" stroke-width="0.697887" stroke-linecap="round" stroke-linejoin="round"/>
<path d="M106.359 153.678L30.2227 203.197" stroke="#0500FF" stroke-width="0.697887" stroke-linecap="round" stroke-linejoin="round"/>
<path d="M79.0286 119.645L10.1855 164.419" stroke="#0500FF" stroke-width="0.697887" stroke-linecap="round" stroke-linejoin="round"/>
<path d="M50.3575 97.3203L1.39844 129.16" stroke="#0500FF" stroke-width="0.697887" stroke-linecap="round" stroke-linejoin="round"/>
<path d="M126.129 191.754L57.0234 236.701" stroke="#0500FF" stroke-width="0.697887" stroke-linecap="round" stroke-linejoin="round"/>
<path d="M135.1 226.89L85.4902 259.156" stroke="#0500FF" stroke-width="0.697887" stroke-linecap="round" stroke-linejoin="round"/>
<path d="M134.124 247.306L104.562 266.532" stroke="#0500FF" stroke-width="0.697887" stroke-linecap="round" stroke-linejoin="round"/>
<path d="M162.527 184.408C163.737 181.523 166.696 177.518 169.102 175.516L197.721 151.664C200.008 149.759 201.091 145.896 200.12 143.078C199.059 139.984 195.517 137.459 192.244 137.474L187.522 137.489C182.456 137.504 174.714 139.574 170.321 142.092L150.75 153.285C149.091 154.235 147.096 153.585 146.319 151.843L143.509 145.604C142.725 143.862 142.478 140.934 142.956 139.088L163.573 59.9853L174.176 39.0402L177.247 28.9823C178.39 25.2237 176.351 20.9495 172.703 19.4775C171.367 18.9395 169.58 19.455 168.737 20.6207L156.242 37.9268C151.175 44.9359 144.504 57.2803 141.409 65.3578L132.159 89.5011C131.681 90.7416 130.201 91.7877 128.871 91.8177L90.0071 92.7292L76.1682 109.273L52.9814 163.045C51.3376 166.856 49.5516 173.334 49.0061 177.444L47.2127 190.939C46.6672 195.049 43.5139 200.459 40.2036 202.961L33.4785 208.043C44.7992 224.519 57.4349 238.276 69.8915 248.371L87.2722 235.938C90.6422 233.524 96.68 230.647 100.678 229.548L116.706 225.14C120.704 224.041 126.637 221.038 129.895 218.459L151.468 201.392C154.718 198.822 158.693 193.584 160.3 189.758L162.542 184.408H162.527Z" fill="#FFAEFE" stroke="#0500FF" stroke-width="0.697887" stroke-linecap="round" stroke-linejoin="round"/>
<path d="M82.479 160.187L80.2148 161.501" stroke="#0500FF" stroke-width="0.697887" stroke-linecap="round" stroke-linejoin="round"/>
<path d="M128.387 119.649L117.933 125.792C107.322 132.032 104.939 147.11 96.4798 152.042L86.3398 157.946" stroke="#0500FF" stroke-width="0.697887" stroke-linecap="round" stroke-linejoin="round"/>
<path d="M127.494 94.4019L136.379 66.8513C137.813 62.3977 135.743 57.5033 138.186 53.6549L151.832 32.1718C154.111 28.5776 156.718 22.2336 157.615 18.0789L158.564 13.6852C159.161 10.9354 157.727 7.40092 155.388 5.83919C153.841 4.80801 151.637 5.1592 150.486 6.61631L118.392 47.3782L105.943 93.9237" fill="#FFAEFE"/>
<path d="M127.494 94.4019L136.379 66.8513C137.813 62.3977 135.743 57.5033 138.186 53.6549L151.832 32.1718C154.111 28.5776 156.718 22.2336 157.615 18.0789L158.564 13.6852C159.161 10.9354 157.727 7.40092 155.388 5.83919C153.841 4.80801 151.637 5.1592 150.486 6.61631L118.392 47.3782L105.943 93.9237" stroke="#0500FF" stroke-width="0.697887" stroke-linecap="round" stroke-linejoin="round"/>
<path d="M115.737 94.4906L122.694 66.0433C124.099 60.2895 121.087 55.8659 123.986 51.3078L136.316 31.9393C138.334 28.7636 139.977 23.0846 139.955 19.326C139.94 16.9497 138.139 14.2522 135.942 13.333C134.216 12.6082 131.885 13.2509 130.772 14.7528L103.467 51.375L93.0508 96.5082" fill="#FFAEFE"/>
<path d="M115.737 94.4906L122.694 66.0433C124.099 60.2895 121.087 55.8659 123.986 51.3078L136.316 31.9393C138.334 28.7636 139.977 23.0846 139.955 19.326C139.94 16.9497 138.139 14.2522 135.942 13.333C134.216 12.6082 131.885 13.2509 130.772 14.7528L103.467 51.375L93.0508 96.5082" stroke="#0500FF" stroke-width="0.697887" stroke-linecap="round" stroke-linejoin="round"/>
<path d="M76.1562 109.272L81.1254 79.2927C81.8502 74.9289 84.4879 68.3681 86.9912 64.7141L112.016 28.1742C112.973 26.7844 115.05 26.0968 116.649 26.6498C118.943 27.4419 120.826 30.0871 120.826 32.5156C120.826 36.6628 119.115 42.9845 117.023 46.5713L103.535 69.6609L99.343 101.194" fill="#FFAEFE"/>
<path d="M76.1562 109.272L81.1254 79.2927C81.8502 74.9289 84.4879 68.3681 86.9912 64.7141L112.016 28.1742C112.973 26.7844 115.05 26.0968 116.649 26.6498C118.943 27.4419 120.826 30.0871 120.826 32.5156C120.826 36.6628 119.115 42.9845 117.023 46.5713L103.535 69.6609L99.343 101.194" stroke="#0500FF" stroke-width="0.697887" stroke-linecap="round" stroke-linejoin="round"/>
<path d="M115.744 94.4912L111.574 95.7465" stroke="#0500FF" stroke-width="0.697887" stroke-linecap="round" stroke-linejoin="round"/>
<path d="M120.82 55.8521L116.65 57.1074" stroke="#0500FF" stroke-width="0.697887" stroke-linecap="round" stroke-linejoin="round"/>
<path d="M136.358 54.1421L132.189 55.3974" stroke="#0500FF" stroke-width="0.697887" stroke-linecap="round" stroke-linejoin="round"/>
<path d="M163.56 59.9854L159.361 60.5533" stroke="#0500FF" stroke-width="0.697887" stroke-linecap="round" stroke-linejoin="round"/>
<path d="M139.375 90.7749L134.271 91.4026" stroke="#0500FF" stroke-width="0.697887" stroke-linecap="round" stroke-linejoin="round"/>
<path d="M92.0335 110.117L88.4766 112.755" stroke="#0500FF" stroke-width="0.697887" stroke-linecap="round" stroke-linejoin="round"/>
<path d="M99.339 101.181C99.0551 103.325 97.4037 106.127 95.6625 107.42L94.7734 108.078" stroke="#0500FF" stroke-width="0.697887" stroke-linecap="round" stroke-linejoin="round"/>
<path d="M103.531 69.646L99.3613 70.9013" stroke="#0500FF" stroke-width="0.697887" stroke-linecap="round" stroke-linejoin="round"/>
<path d="M121.057 152.61C112.285 164.177 103.131 180.856 101.592 201.3" stroke="#0500FF" stroke-width="0.697887" stroke-linecap="round" stroke-linejoin="round"/>
<path d="M127.024 145.37C126.053 146.461 125.043 147.619 124.02 148.86" stroke="#0500FF" stroke-width="0.697887" stroke-linecap="round" stroke-linejoin="round"/>
<path d="M95.1283 194.98L93.0137 208.073" stroke="#0500FF" stroke-width="0.697887" stroke-linecap="round" stroke-linejoin="round"/>
<path d="M285.271 251.707C328.983 216.234 360.335 182.445 355.298 176.239C350.261 170.031 310.742 193.756 267.029 229.229C223.317 264.703 191.964 298.491 197.002 304.698C202.039 310.906 241.558 287.181 285.271 251.707Z" fill="#48FF91" stroke="#2ECCFF" stroke-width="0.697887" stroke-linecap="round" stroke-linejoin="round"/>
<path d="M240.836 51.7471L242.382 51.0596C243.765 50.4468 245.305 51.1119 245.813 52.5392L253.479 74.1717L262.163 117.706L246.433 122.548L240.836 51.7471Z" fill="#1B1B1C"/>
<path d="M211.967 46.7477L212.595 15.6999C212.662 12.3298 214.351 7.33824 216.338 4.61083C218.192 2.07768 222.235 0.43376 225.328 0.964299L225.492 0.994188C226.979 1.24825 228.287 2.68295 228.391 4.19236L231.41 46.1872C231.873 52.6209 236.312 54.8327 236.64 61.924L238.584 103.538C238.681 105.623 239.72 108.746 240.893 110.472L245.555 117.332L246.437 122.555L214.986 110.98L211.967 46.7477Z" fill="#1B1B1C"/>
<path d="M296.827 242.149L279.11 219.56C276.122 215.749 273.2 208.696 272.617 203.884L262.163 117.697L234.986 112.728L228.44 99.8979L219.19 53.1954C218.024 47.3221 214.354 45.0206 213.203 39.3042L205.941 3.24252C205.582 1.45661 203.915 0.574878 202.234 1.28476L200.613 1.96475C197.923 3.10054 195.435 6.39586 195.083 9.29515L194.352 15.3702C194 18.2695 193.962 23.0144 194.262 25.9138L199.634 77.6899C199.634 85.4312 196.384 87.8747 196.608 97.7009L197.49 137.147L193.432 149.91C192.759 152.026 190.734 152.69 188.941 151.39L182.149 146.466L165.133 121C162.518 117.084 156.795 112.481 152.409 110.763L146.415 108.416C142.956 107.064 137.643 107.714 134.617 109.858L133.854 110.396C131.635 111.966 130.992 115.142 132.435 117.45L151.564 148.058C154.134 152.167 156.966 159.423 157.864 164.182L161.144 181.593C162.04 186.353 165.045 193.504 167.81 197.472L190.196 229.573C192.969 233.549 198.841 238.451 203.244 240.468L208.108 242.695C212.509 244.713 218.808 249.27 222.103 252.828L247.502 280.266C259.151 272.174 272.019 262.505 285.29 251.737C289.251 248.524 293.099 245.326 296.842 242.164L296.827 242.149Z" fill="#1B1B1C"/>
<path d="M142.139 129.22L148.021 125.872C149.283 125.155 149.971 123.429 149.545 122.031L146.235 111.226C146.235 111.226 137.933 109.336 134.279 114.559" stroke="#2ECCFF" stroke-width="0.697887" stroke-linecap="round" stroke-linejoin="round"/>
<path d="M227.305 27.4312H234.627C236.137 27.4312 237.609 28.6417 237.907 30.1212L245.298 67.1917L249.094 109.47C249.221 110.883 249.991 112.99 250.805 114.156L255.551 120.911L231.706 114.492L225.414 41.7706L227.305 27.4312Z" fill="#1B1B1C"/>
<path d="M230.066 27.4312L231.419 46.1793C231.883 52.6131 236.321 54.8249 236.649 61.9161L238.593 103.53C238.689 105.615 239.729 108.738 240.901 110.464L245.564 117.324" stroke="#2ECCFF" stroke-width="0.697887" stroke-linecap="round" stroke-linejoin="round"/>
<path d="M233.293 109.405L228.45 99.9075L219.199 53.205C218.034 47.3317 214.365 45.0302 213.214 39.3139L212.369 35.1069" stroke="#2ECCFF" stroke-width="0.697887" stroke-linecap="round" stroke-linejoin="round"/>
<path d="M236.454 115.608L234.988 112.738" stroke="#2ECCFF" stroke-width="0.697887" stroke-linecap="round" stroke-linejoin="round"/>
<path d="M242.125 51.2095L245.309 67.1928L249.105 109.472C249.232 110.884 250.001 112.991 250.816 114.157L253.043 117.325" stroke="#2ECCFF" stroke-width="0.697887" stroke-linecap="round" stroke-linejoin="round"/>
</g>
</g>
<defs>
<clipPath id="clip0_32061_1620">
<rect width="356.988" height="307.06" fill="white"/>
</clipPath>
</defs>
</svg>
