<svg width="172" height="200" viewBox="0 0 172 200" fill="none" xmlns="http://www.w3.org/2000/svg">
<g clip-path="url(#clip0_32061_1520)">
<path d="M75.1689 9.87061L114.446 22.3416L162.681 76.0641L102.87 170.083C102.87 170.083 63.1816 200.806 27.9858 196.948L14.0762 164.224L75.1689 9.87061Z" fill="#0500FF" stroke="#0500FF" stroke-width="0.560497" stroke-linecap="round" stroke-linejoin="round"/>
<path d="M78.875 18.3327L112.986 145.697L159.567 68.8246L91.3851 16.2466L78.875 18.3327Z" fill="#1B1B1C"/>
<path d="M148.606 79.097L114.306 57.7192H62.9121L140.04 94.197" stroke="#48FF91" stroke-width="0.560497" stroke-linecap="round" stroke-linejoin="round"/>
<path d="M128.825 113.561L99.3318 95.1787H47.9375L121.429 126.418" stroke="#48FF91" stroke-width="0.560497" stroke-linecap="round" stroke-linejoin="round"/>
<path d="M108.706 147.814L84.3525 132.635H35.4434L101.892 157.198" stroke="#48FF91" stroke-width="0.560497" stroke-linecap="round" stroke-linejoin="round"/>
<path d="M81.4872 177.649L69.3761 170.095H28.2227L72.0115 184.051" stroke="#48FF91" stroke-width="0.560497" stroke-linecap="round" stroke-linejoin="round"/>
<path d="M53.4141 192.061C54.7352 173.783 59.9082 144.61 76.2109 104.404L103.612 36.8179" stroke="#48FF91" stroke-width="0.560497" stroke-linecap="round" stroke-linejoin="round"/>
<path d="M86.5195 172.771C90.0179 158.299 95.3476 141.158 103.385 121.337L129.733 56.3398" stroke="#48FF91" stroke-width="0.560497" stroke-linecap="round" stroke-linejoin="round"/>
<path d="M67.582 103.53C73.8926 106.153 74.0365 109.886 71.6561 116.126C74.0429 109.886 76.9138 107.644 83.1132 110.135C76.9138 107.644 76.1159 103.739 78.9736 97.6055C76.4365 103.87 73.899 106.153 67.5884 103.53H67.582Z" fill="#48FF91" stroke="#48FF91" stroke-width="0.560497" stroke-linecap="round" stroke-linejoin="round"/>
<path d="M85.8496 151.267C90.4078 152.954 91.0941 155.949 89.7343 160.592C91.0941 155.949 92.5655 153.745 97.0385 155.4C92.5655 153.745 92.5263 151.326 94.0501 146.624C92.5263 151.326 90.4142 152.947 85.856 151.267H85.8496Z" fill="#48FF91" stroke="#48FF91" stroke-width="0.560497" stroke-linecap="round" stroke-linejoin="round"/>
<path d="M108.692 116.125C121.745 116.125 132.326 105.543 132.326 92.4908C132.326 79.4379 121.745 68.8569 108.692 68.8569C95.6401 68.8569 85.0586 79.4379 85.0586 92.4908C85.0586 105.543 95.6401 116.125 108.692 116.125Z" fill="#48FF91"/>
<path d="M105.447 116.26L122.764 73.5312" stroke="#0500FF" stroke-width="0.560497" stroke-linecap="round" stroke-linejoin="round"/>
<path d="M95.2617 73.0161L132.263 90.5161" stroke="#0500FF" stroke-width="0.560497" stroke-linecap="round" stroke-linejoin="round"/>
<path d="M110.994 80.4576C117.305 83.0798 117.096 87.1343 114.715 93.3798C117.102 87.1412 120.136 85.2317 126.336 87.7163C120.136 85.2248 119.339 81.0528 122.196 74.9185C119.659 81.1835 117.312 83.0798 110.994 80.4576Z" fill="#0500FF" stroke="#0500FF" stroke-width="0.560497" stroke-linecap="round" stroke-linejoin="round"/>
<path d="M35.379 199.556C30.8471 199.504 28.2051 199.138 28.2051 199.138C28.2051 199.138 30.8471 199.609 35.379 199.556Z" fill="white"/>
<path d="M114.664 13.3874H80.8813L150.423 65.4356C155.249 69.052 156.603 75.7096 153.569 80.9213L118.791 140.647C88.3036 192.996 50.8254 199.359 35.3789 199.556C53.5459 199.758 102.154 194.847 133.714 140.647L169.185 79.7313C171.912 75.0488 171.12 69.1112 167.262 65.3049L114.658 13.3809L114.664 13.3874Z" fill="#F4F4F7"/>
<path d="M133.712 140.648L169.182 79.7312C170.13 78.0962 170.647 76.3179 170.758 74.5259L155.168 75.2777C155.116 77.2074 154.599 79.1492 153.572 80.9216L118.795 140.648C88.3076 192.997 50.8293 199.36 35.3828 199.556C53.5499 199.759 102.158 194.848 133.718 140.648H133.712Z" fill="#1B1B1C"/>
<path d="M169.181 79.7312C170.13 78.0962 170.646 76.3179 170.757 74.5259L155.167 75.2777C155.115 77.2074 154.598 79.1492 153.571 80.9216L128.361 124.214L146.659 118.406L169.181 79.7248V79.7312Z" fill="#2D9FFF"/>
<path d="M121.484 136.022L139.782 130.221L143.17 124.401L124.872 130.209L121.484 136.022Z" fill="#2D9FFF"/>
<path d="M35.379 199.556C30.8471 199.504 28.2051 199.138 28.2051 199.138C28.2051 199.138 30.8471 199.609 35.379 199.556Z" stroke="#0500FF" stroke-width="0.560497" stroke-linecap="round" stroke-linejoin="round"/>
<path d="M114.664 13.3874H80.8813L150.423 65.4356C155.249 69.052 156.603 75.7096 153.569 80.9213L118.791 140.647C88.3036 192.996 50.8254 199.359 35.3789 199.556C53.5459 199.758 102.154 194.847 133.714 140.647L169.185 79.7313C171.912 75.0488 171.12 69.1112 167.262 65.3049L114.658 13.3809L114.664 13.3874Z" stroke="#0500FF" stroke-width="0.560497" stroke-linecap="round" stroke-linejoin="round"/>
<path d="M35.379 199.556C30.8471 199.504 28.2051 199.138 28.2051 199.138C28.2051 199.138 30.8471 199.609 35.379 199.556Z" fill="white" stroke="#0500FF" stroke-width="0.560497" stroke-linecap="round" stroke-linejoin="round"/>
<path d="M118.8 140.647L153.578 80.922C156.612 75.7098 155.258 69.0458 150.432 65.4363L80.8903 13.3877L50.4945 88.377C20.4321 162.529 28.2141 199.144 28.2141 199.144C28.2141 199.144 30.8561 199.51 35.3881 199.563C50.8345 199.373 88.3194 193.01 118.8 140.654V140.647Z" stroke="#0500FF" stroke-width="0.560497" stroke-linecap="round" stroke-linejoin="round"/>
<path d="M50.485 88.3698L80.881 13.3806L49.1117 1.28892C44.3771 -0.516004 39.067 1.799 37.1574 6.50097L10.1882 73.0343C-19.8741 147.187 28.2047 199.137 28.2047 199.137C28.2047 199.137 20.4226 162.528 50.485 88.3698Z" fill="url(#paint0_linear_32061_1520)"/>
<path d="M153.574 80.922C156.608 75.7098 155.255 69.0458 150.429 65.4363L80.8869 13.3877L78.8789 18.3382L145.465 68.104C151.331 72.4924 151.252 74.5786 147.551 81.0199L114.311 138.797C97.0789 168.755 67.3694 198.228 27.5762 193.965C27.8443 197.418 28.2105 199.144 28.2105 199.144C28.2105 199.144 30.8525 199.51 35.3844 199.563C50.8308 199.373 88.3154 193.01 118.796 140.654L153.574 80.9283V80.922Z" fill="#F4F4F7" stroke="#0500FF" stroke-width="0.560497" stroke-linecap="round" stroke-linejoin="round"/>
<path d="M47.3184 0.682617L80.8792 13.389H114.663L62.2353 0.682617H47.3184Z" fill="#2D9FFF" stroke="#0500FF" stroke-width="0.560497" stroke-linecap="round" stroke-linejoin="round"/>
<path d="M35.4472 132.638L2.86709 97.0239C-9.72157 158.149 28.2013 199.139 28.2013 199.139C28.2013 199.139 23.5386 177.114 35.4407 132.671V132.645L35.4472 132.638Z" fill="#2D9FFF"/>
<path d="M5.39258 86.8473L36.4359 129.047L38.5154 122.154L10.1926 73.0356L5.39258 86.8473Z" fill="#2D9FFF"/>
<path d="M50.485 88.3698L80.881 13.3806L49.1117 1.28892C44.3771 -0.516004 39.067 1.799 37.1574 6.50097L10.1882 73.0343C-19.8741 147.187 28.2047 199.137 28.2047 199.137C28.2047 199.137 20.4226 162.528 50.485 88.3698Z" stroke="#0500FF" stroke-width="0.560497" stroke-linecap="round" stroke-linejoin="round"/>
</g>
<defs>
<linearGradient id="paint0_linear_32061_1520" x1="41.0811" y1="86.5777" x2="-8.40378" y2="11.6803" gradientUnits="userSpaceOnUse">
<stop stop-color="#48FF91"/>
<stop offset="1" stop-color="#2D9FFF"/>
</linearGradient>
<clipPath id="clip0_32061_1520">
<rect width="171.429" height="200" fill="white"/>
</clipPath>
</defs>
</svg>
