<svg width="145" height="200" viewBox="0 0 145 200" fill="none" xmlns="http://www.w3.org/2000/svg">
<g clip-path="url(#clip0_32061_1475)">
<mask id="mask0_32061_1475" style="mask-type:luminance" maskUnits="userSpaceOnUse" x="0" y="0" width="144" height="200">
<path d="M0.142578 0.888672H143.975V199.633H0.142578V0.888672Z" fill="white"/>
</mask>
<g mask="url(#mask0_32061_1475)">
<path d="M117.226 132.097C133.459 126.919 137.055 116.6 137.055 116.6V69.4864C137.055 31.7615 106.469 1.17529 68.7389 1.17529C34.2045 1.17529 5.65745 26.8039 1.07227 60.0748L89.5749 74.6293V127.942L117.219 132.102L117.226 132.097Z" fill="#48FF91"/>
<path d="M40.332 21.7457C53.9849 8.95626 74.8834 -0.277599 94.6971 6.22716" stroke="#0500FF" stroke-width="0.518519" stroke-linecap="round" stroke-linejoin="round"/>
<path d="M78.8114 42.462C71.8992 49.0938 66.1299 58.4197 61.3828 69.9922L89.5733 74.6292V127.944L117.225 132.103C126.608 129.11 131.763 124.404 134.446 120.962V72.9118L133.153 54.8282C126.608 31.0335 104.584 17.7541 78.8114 42.4684V42.462Z" fill="url(#paint0_linear_32061_1475)"/>
<path d="M117.226 132.097C133.459 126.919 137.055 116.6 137.055 116.6V69.4864C137.055 31.7615 106.469 1.17529 68.7389 1.17529C34.2045 1.17529 5.65745 26.8039 1.07227 60.0748L89.5749 74.6293V127.942L117.219 132.102L117.226 132.097Z" stroke="#0500FF" stroke-width="0.518519" stroke-linecap="round" stroke-linejoin="round"/>
<path d="M94.8298 80.5427C84.8193 84.186 70.9992 86.439 55.7261 86.439C34.9886 86.439 16.9166 82.2834 7.45312 76.1353V142.659L12.6129 160.622C19.1113 169.603 38.6023 168.264 38.6023 168.264L100.512 115.905V78.4739L94.8298 80.5427Z" fill="#1B1B1C" stroke="#0500FF" stroke-width="0.518519" stroke-linecap="round" stroke-linejoin="round"/>
<path d="M100.508 107.262L94.8259 108.619C50.8503 119.105 14.5053 113.824 7.44922 98.5054M83.6259 130.185C42.9709 142.332 13.9296 136.114 7.45345 122.059M48.0333 160.276C26.4672 161.167 11.8217 155.254 7.45345 145.767" stroke="#0500FF" stroke-width="0.518519" stroke-linecap="round" stroke-linejoin="round"/>
<path d="M24.9476 167.268V83.0293M13.3359 161.512V79.2314M53.9825 155.247V86.4251M83.0799 130.643V83.806" stroke="#0500FF" stroke-width="0.518519" stroke-miterlimit="10"/>
<path d="M46.1462 113.962C52.4901 114.082 54.0192 112.072 53.9843 104.819C54.0181 112.072 56.2361 114.014 61.3853 113.772C56.2361 114.014 53.9959 116.347 53.9843 122.57C53.9949 116.347 52.4954 114.082 46.1462 113.962ZM21.0234 133.104C24.0689 134.057 24.8446 136.183 24.9483 141.556C24.8615 136.218 25.9822 134.65 28.9303 135.315C25.9769 134.65 24.9652 132.598 24.8393 126.552C24.9652 132.598 24.0636 134.052 21.0234 133.097V133.104Z" fill="#0500FF" stroke="#0500FF" stroke-width="0.518519" stroke-linecap="round" stroke-linejoin="round"/>
<path d="M10.6087 80.7964C10.3854 80.3541 10.0637 79.7679 9.89648 79.3022L9.92506 80.9636C10.0235 81.2673 10.1494 81.5668 10.2986 81.8705L10.4764 91.3985L10.1208 90.553L10.1494 92.2144C10.4658 92.9096 10.9716 93.806 11.4087 94.4377L11.379 92.7763C11.1674 92.5128 10.9822 92.2546 10.8161 91.9837L10.6034 80.7964M13.633 95.1573C13.0404 94.6398 12.8806 93.4038 12.8457 92.4557L12.8288 91.5139C13.6732 90.6811 13.7251 90.6356 14.3515 90.0885L14.4203 93.6515C14.4203 95.3065 13.9261 95.3753 13.633 95.1573ZM12.8002 89.7784L12.742 86.5615C12.7367 84.5382 13.3452 84.9742 13.5356 85.1583C13.7018 85.3192 14.2531 85.9858 14.3166 87.7562L14.3272 88.353C13.397 89.1806 13.3219 89.2493 12.8055 89.7784M13.4192 83.4229C12.5642 82.8663 12.1335 83.734 12.1388 86.0091L12.2478 91.9044C12.397 96.4271 13.9378 97.6102 14.6954 96.7192C15.2531 96.0652 15.2594 94.6451 15.2594 94.1795L15.1494 88.2853C15.0288 85.3763 13.9663 83.8303 13.4203 83.4176M19.0446 98.2017C18.1018 97.7255 17.8594 96.5065 17.8203 95.57L17.8023 94.6282C19.1885 93.7022 19.2446 93.6684 20.2044 93.0705L20.2743 96.6335C20.2563 98.6673 19.1706 98.2589 19.0446 98.207M17.7684 92.8927L17.7113 89.6747C17.7219 87.5139 18.8542 87.9626 19.3663 88.5022C19.8489 89.0081 20.1176 89.7615 20.1642 90.7372L20.1758 91.335C18.7335 92.243 18.6192 92.3171 17.7737 92.8927M18.8256 86.4737C17.0965 85.8472 16.7166 87.5996 16.705 89.1742L16.815 95.0705C17.0097 99.552 19.6531 100.817 20.8192 99.5118C21.4806 98.771 21.4975 97.5922 21.5039 97.0927L21.3938 91.1975C21.2108 87.5361 18.9229 86.5086 18.8256 86.4673M27.6065 89.6292C26.4923 89.3298 25.0034 88.9393 23.9007 88.6059L23.9293 90.2673L26.1356 90.9044L26.3134 100.431C25.6223 100.246 24.9343 100.049 24.2499 99.8398L24.2796 101.501C26.0669 102.046 27.9568 102.535 29.9335 102.966L29.905 101.304L27.8139 100.818L27.6012 89.6292M36.9949 91.4102C35.7293 91.2091 34.0457 90.9562 32.7822 90.7329L32.8108 92.3932L35.3335 92.8239L35.5113 102.351C34.7176 102.224 33.9314 102.093 33.1557 101.955L33.1843 103.615C35.2415 103.989 37.3737 104.305 39.5568 104.569L39.5282 102.909C38.751 102.816 37.975 102.715 37.2002 102.604L36.9885 91.4165M46.1885 103.775C44.9875 103.638 44.2859 102.844 44.2055 101.535L44.1885 100.593C45.797 99.6155 47.0806 98.8303 48.0383 98.2366L48.1071 101.799C48.0616 103.805 46.4986 103.799 46.1885 103.782M44.1536 98.8631L44.0965 95.6451C44.1483 93.3573 46.4637 93.3234 47.4235 94.3753C47.9346 94.9382 47.9758 95.5922 47.9928 95.9033L48.0034 96.5012C45.706 97.9202 45.6192 97.9721 44.1536 98.8567M45.9642 92.0419C43.7293 91.9964 42.4076 93.2483 42.3494 95.4843L42.4594 101.379C42.7293 105.631 47.2796 106.494 49.124 104.269C49.8658 103.373 49.8944 102.363 49.906 101.88L49.797 95.9837C49.561 92.3858 46.3314 92.0652 45.9642 92.0419ZM56.8298 104.091C55.5949 104.045 54.8711 103.298 54.7907 101.993L54.7727 101.051C57.1113 99.5001 57.2489 99.4081 58.7198 98.4017L58.7896 101.965C58.7441 103.975 57.1515 104.084 56.8298 104.091ZM54.7388 99.316L54.6806 96.098C54.7388 93.788 57.1113 93.5869 58.0997 94.5805C58.6224 95.1096 58.6573 95.7594 58.6806 96.0694L58.6912 96.6673C56.4341 98.1954 56.2499 98.3223 54.7441 99.316M56.6118 92.3573C54.3018 92.4779 52.9399 93.8335 52.8764 96.0747L52.9864 101.971C53.2616 106.136 57.9917 106.694 59.8298 104.373C60.5822 103.424 60.6108 102.407 60.6235 101.918L60.5134 96.0239C60.2774 92.4377 56.9854 92.3573 56.6118 92.3573ZM68.5843 92.0832C67.1991 92.1858 65.3547 92.335 63.9642 92.4155L63.9928 94.0768L66.7917 93.8927L66.9695 103.42L64.3557 103.592L64.3843 105.254C66.4467 105.11 69.1991 104.885 71.2563 104.69L71.2277 103.028C70.4171 103.115 69.6012 103.195 68.7854 103.265L68.5737 92.0768M78.8415 90.7657C77.5261 90.9721 75.7727 91.2483 74.4573 91.4324L74.4859 93.0938L77.1526 92.7075L77.3304 102.236C76.5092 102.362 75.6817 102.482 74.8436 102.597L74.8711 104.258C77.0375 103.931 79.1999 103.578 81.3579 103.2L81.3304 101.539L79.0489 101.953L78.8372 90.7657" fill="#48FF91"/>
<path d="M3.82422 93.7353V70.0146L9.84644 71.676V92.9596C9.84644 102.706 14.5131 114.565 14.5131 114.565L8.79459 115.904L3.82422 108.452V93.7353Z" fill="#2D9FFF" stroke="#0500FF" stroke-width="0.518519" stroke-linecap="round" stroke-linejoin="round"/>
<path d="M9.84115 90.5807L3.82422 90.7923V70.0156L9.84115 71.677V90.5807Z" fill="#0500FF"/>
<path d="M30.4347 123.776C30.4347 123.776 71.3532 118.472 95.5151 96.1201L100.51 97.936L64.1987 129.351L30.4347 123.776Z" fill="#2D9FFF" stroke="#0500FF" stroke-width="0.518519" stroke-linecap="round" stroke-linejoin="round"/>
<path d="M95.5156 96.1214V74.624H100.508V97.9362L95.5156 96.1214Z" fill="#0500FF" stroke="#0500FF" stroke-width="0.518519" stroke-linecap="round" stroke-linejoin="round"/>
<path d="M121.295 57.6312L98.5175 44.8291C56.9736 21.482 20.3006 15.9317 14.945 21.9995C7.68155 31.2682 2.75668 42.4545 1.07308 54.6841C0.643353 57.8029 0.428385 60.9475 0.429693 64.0957V66.3074C0.429693 77.427 25.1905 86.4375 55.7313 86.4375C71.0054 86.4375 84.8244 84.1846 94.8339 80.5412L116.623 72.6122C117.112 69.4058 117.968 66.0153 119.216 62.5963C119.827 60.9101 120.521 59.2552 121.295 57.6375V57.6312Z" fill="#48FF91"/>
<path d="M38.5557 21.3858L36.2806 23.8282C35.1705 25.0239 32.9472 25.753 31.3441 25.4472C29.7409 25.1435 29.2869 23.88 30.3388 22.6271L32.2636 20.334" stroke="#0500FF" stroke-width="0.518519" stroke-linecap="round" stroke-linejoin="round"/>
<path d="M142.229 73.5551C145.281 65.1699 143.398 56.7858 138.02 54.8292C132.643 52.8715 125.81 58.0832 122.758 66.4694C119.706 74.8546 121.59 83.2398 126.967 85.1964C132.345 87.1541 139.178 81.9414 142.229 73.5551Z" fill="url(#paint1_linear_32061_1475)" stroke="#0500FF" stroke-width="0.518519" stroke-miterlimit="10"/>
<path d="M140.776 73.0273C142.761 67.5733 141.535 62.1193 138.036 60.8463C134.538 59.5733 130.094 62.9627 128.108 68.4167C126.123 73.8717 127.35 79.3246 130.847 80.5987C134.345 81.8717 138.791 78.4823 140.776 73.0273Z" fill="#48FF91" stroke="#0500FF" stroke-width="0.518519" stroke-miterlimit="10"/>
<path d="M14.5078 79.7268C14.5078 60.2877 20.657 38.9755 31.2528 25.3501" stroke="#0500FF" stroke-width="0.518519" stroke-linecap="round" stroke-linejoin="round"/>
<path d="M121.293 57.6325L126.241 60.4145M134.451 64.3997V60.9986L131.859 55.333" stroke="#0500FF" stroke-width="0.518519" stroke-miterlimit="10"/>
<path d="M30.4347 123.777C71.8473 121.248 100.509 97.936 100.509 97.936L117.219 111.756V143.602C117.219 143.602 92.4643 184.515 30.4336 199.334V123.771L30.4347 123.777Z" fill="#48FF91"/>
<path d="M45.7844 121.856C42.813 144.123 41.3939 169.319 41.25 196.39C95.3622 179.732 117.221 143.605 117.221 143.605V111.76L100.511 97.9395C100.511 97.9395 78.7622 115.627 45.7844 121.856Z" fill="url(#paint2_linear_32061_1475)"/>
<path d="M112.317 150.198V122.777L117.225 117.835M126.948 74.3882H121.34L108.049 79.2273V97.9363L104.584 101.31" stroke="#0500FF" stroke-width="0.518519" stroke-linecap="round" stroke-linejoin="round"/>
<path d="M3.82422 93.7349C3.82422 106.635 8.79459 115.898 8.79459 115.898V191.57C8.79459 191.57 3.82422 174.29 3.82422 156.409V93.7349Z" fill="#48FF91" stroke="#0500FF" stroke-width="0.518519" stroke-linecap="round" stroke-linejoin="round"/>
<path d="M8.78711 115.897L14.5046 114.563V189.85L8.78711 191.569V115.897Z" fill="#0500FF" stroke="#0500FF" stroke-width="0.518519" stroke-linecap="round" stroke-linejoin="round"/>
<path d="M8.78711 191.57L14.5046 189.853V156.599L8.78711 165.775V191.57Z" fill="#1B1B1C" stroke="#0500FF" stroke-width="0.518519" stroke-linecap="round" stroke-linejoin="round"/>
<path d="M121.295 57.6301L98.5168 44.828C92.3453 41.3548 86.03 38.1435 79.5877 35.2026C78.6552 36.0069 77.7452 36.8368 76.8587 37.6915C66.1253 47.9825 58.1433 64.7846 52.4883 86.3963C53.5634 86.4196 54.6438 86.4302 55.7306 86.4302C71.0036 86.4302 84.8227 84.1783 94.8333 80.5349L116.623 72.6048C117.111 69.3984 117.968 66.009 119.214 62.5899C119.826 60.9034 120.52 59.2481 121.295 57.6301Z" fill="url(#paint3_linear_32061_1475)"/>
<path d="M94.7324 120.784V118.164L99.4668 113.383V115.911L97.3642 117.933C96.9504 118.33 96.2721 118.933 96.2721 118.933V118.968C96.2721 118.968 96.9388 119.008 97.3642 119.082L99.4668 119.485V122.122L94.7324 120.784ZM103.213 109.21L104.821 108.624L101.753 122.386L100.144 122.972L103.213 109.21ZM105.568 117.353L107.672 115.33C108.086 114.934 108.763 114.348 108.763 114.348V114.313C108.763 114.313 108.096 114.256 107.672 114.181L105.568 113.779V111.158L110.304 112.497V115.117L105.568 119.898V117.353Z" fill="#0500FF"/>
<path d="M30.4339 123.777C71.8466 121.248 100.508 97.936 100.508 97.936L117.218 111.756V143.602C117.218 143.602 92.4636 184.515 30.4329 199.334V123.771L30.4339 123.777ZM121.295 57.6312L98.5175 44.8291C56.9736 21.482 20.3006 15.9317 14.945 21.9995C7.68155 31.2682 2.75668 42.4545 1.07308 54.6841C0.643353 57.8029 0.428385 60.9475 0.429693 64.0958V66.3074C0.429693 77.427 25.1905 86.4376 55.7313 86.4376C71.0054 86.4376 84.8244 84.1846 94.8339 80.5413L116.623 72.6122C117.112 69.4058 117.968 66.0153 119.215 62.5963C119.827 60.9103 120.521 59.2554 121.295 57.6376V57.6312Z" stroke="#0500FF" stroke-width="0.518519" stroke-linecap="round" stroke-linejoin="round"/>
<path d="M105.58 15.0527C98.0936 10.7723 90.6989 9.02626 82.7285 11.439C86.1179 14.2718 91.1518 18.639 101.236 19.7194C109.115 20.5638 116.05 24.7014 120.716 28.3966C120.716 28.3966 114.361 20.0633 105.587 15.0474L105.58 15.0527Z" fill="url(#paint4_linear_32061_1475)"/>
</g>
</g>
<defs>
<linearGradient id="paint0_linear_32061_1475" x1="149.617" y1="95.4134" x2="60.9521" y2="65.6028" gradientUnits="userSpaceOnUse">
<stop stop-color="#48FF91"/>
<stop offset="1" stop-color="#2D9FFF"/>
</linearGradient>
<linearGradient id="paint1_linear_32061_1475" x1="141.338" y1="63.1509" x2="133.954" y2="68.8853" gradientUnits="userSpaceOnUse">
<stop stop-color="#48FF91"/>
<stop offset="1" stop-color="#2D9FFF"/>
</linearGradient>
<linearGradient id="paint2_linear_32061_1475" x1="125.99" y1="165.688" x2="37.3262" y2="135.882" gradientUnits="userSpaceOnUse">
<stop stop-color="#48FF91"/>
<stop offset="1" stop-color="#2D9FFF"/>
</linearGradient>
<linearGradient id="paint3_linear_32061_1475" x1="151.582" y1="89.5624" x2="62.919" y2="59.7508" gradientUnits="userSpaceOnUse">
<stop stop-color="#48FF91"/>
<stop offset="1" stop-color="#2D9FFF"/>
</linearGradient>
<linearGradient id="paint4_linear_32061_1475" x1="158.664" y1="36.6019" x2="88.4915" y2="13.0072" gradientUnits="userSpaceOnUse">
<stop stop-color="#48FF91"/>
<stop offset="1" stop-color="#2D9FFF"/>
</linearGradient>
<clipPath id="clip0_32061_1475">
<rect width="144.974" height="200" fill="white"/>
</clipPath>
</defs>
</svg>
