<svg width="254" height="200" viewBox="0 0 254 200" fill="none" xmlns="http://www.w3.org/2000/svg">
<g clip-path="url(#clip0_32061_1384)">
<path d="M20.2383 66.6868L75.2084 46.466C79.5461 44.8738 84.45 44.6453 89.6279 46.018L34.6578 66.2388C29.4798 64.866 24.5746 65.0946 20.2383 66.6868Z" fill="#2D9FFF" stroke="#0500FF" stroke-width="0.7" stroke-linecap="round" stroke-linejoin="round"/>
<path d="M123.105 93.0519L161.854 78.8078L162.796 42.6753L124.048 56.9311L123.105 93.0519Z" fill="#0500FF" stroke="#48FF91" stroke-width="0.7" stroke-linecap="round" stroke-linejoin="round"/>
<path d="M161.854 78.8091L123.105 93.0545L151.451 103.375L218.828 127.895L197.711 91.8558L161.854 78.8091Z" fill="#1B1B1C" stroke="#0500FF" stroke-width="0.7" stroke-linecap="round" stroke-linejoin="round"/>
<path d="M100.269 45.0519C98.0627 45.873 96.0274 47.0958 94.2665 48.6584C88.9678 53.3337 85.5652 61.1922 85.3003 71.1844L84.3574 107.314L123.105 93.0597L124.048 56.9298C124.313 46.9467 127.717 39.0779 133.015 34.4026C134.776 32.8405 136.811 31.6181 139.017 30.7974L100.269 45.0532V45.0519Z" fill="#0500FF" stroke="#48FF91" stroke-width="0.7" stroke-linecap="round" stroke-linejoin="round"/>
<path d="M239.625 163.405L238.17 160.917L218.828 127.896L123.105 93.0547L84.3574 107.309L112.703 117.63L234.922 162.114C236.452 162.673 238.025 163.105 239.625 163.405Z" fill="#1B1B1C" stroke="#0500FF" stroke-width="0.7" stroke-linecap="round" stroke-linejoin="round"/>
<path d="M61.523 59.2987C59.3166 60.1198 57.2814 61.3426 55.5204 62.9051C50.2217 67.5805 46.8191 75.4402 46.5542 85.4311L45.6113 121.562L84.3594 107.308L85.3022 71.1766C85.5672 61.1935 88.9711 53.3246 94.2685 48.6493C96.0296 47.0876 98.0648 45.8657 100.271 45.0454L61.523 59.2987Z" fill="#0500FF" stroke="#48FF91" stroke-width="0.7" stroke-linecap="round" stroke-linejoin="round"/>
<path d="M102.637 15.2272C99.1331 16.5181 95.8942 18.4662 93.0033 21.0103C84.4838 28.5311 79.0137 41.1571 78.6007 57.196L78.5098 60.5999L117.259 46.3454L117.35 42.9428C117.68 30.4986 121.057 20.1129 126.528 12.5662L119.977 8.85059L102.64 15.2272H102.637Z" fill="#0500FF" stroke="#48FF91" stroke-width="0.7" stroke-linecap="round" stroke-linejoin="round"/>
<path d="M239.627 163.403C238.026 163.106 236.453 162.674 234.924 162.112L84.3594 107.307L45.6113 121.561L73.9568 131.882L185.233 172.378L196.176 176.359L197.841 175.746C203.971 176.999 210.275 177.748 213.03 176.733L241.348 166.321L239.636 163.394L239.627 163.403Z" fill="#1B1B1C" stroke="#0500FF" stroke-width="0.7" stroke-linecap="round" stroke-linejoin="round"/>
<path d="M22.775 73.5558C20.5687 74.3766 18.5335 75.599 16.7724 77.161C11.4737 81.8363 8.07107 89.6948 7.80614 99.687L6.86328 135.818L45.6113 121.564L46.5542 85.4311C46.8191 75.4493 50.223 67.5818 55.5204 62.9052C57.2816 61.3436 59.3168 60.1217 61.523 59.3013L22.775 73.5558Z" fill="#0500FF" stroke="#48FF91" stroke-width="0.7" stroke-linecap="round" stroke-linejoin="round"/>
<path d="M54.2552 35.2584C45.7357 42.7778 40.2656 55.4051 39.8526 71.4441L39.7617 74.8467L78.5098 60.5934L78.6007 57.1895C79.0228 41.1597 84.4942 28.5233 93.0033 21.0025C95.8942 18.4597 99.1331 16.5103 102.637 15.2207L63.889 29.4752C60.3851 30.7649 57.1461 32.7142 54.2552 35.2584Z" fill="#0500FF" stroke="#48FF91" stroke-width="0.7" stroke-linecap="round" stroke-linejoin="round"/>
<path d="M45.8184 46.2622L117.714 19.8115" stroke="#48FF91" stroke-width="0.7" stroke-linecap="round" stroke-linejoin="round"/>
<path d="M185.222 172.382L45.5996 121.565L6.85156 135.822L35.197 146.143L157.416 190.627C163.51 192.842 169.265 192.851 174.27 191.003L213.018 176.748C208.014 178.587 191.306 174.606 185.213 172.383H185.222V172.382Z" fill="#1B1B1C" stroke="#0500FF" stroke-width="0.7" stroke-linecap="round" stroke-linejoin="round"/>
<path d="M239.35 135.817L123.106 178.125M242.336 159.717L157.428 190.614M210.668 118.052L84.3503 164.026M171.922 103.94L45.6035 149.916" stroke="#0500FF" stroke-width="0.7" stroke-linecap="round" stroke-linejoin="round"/>
<path d="M124.049 56.9326L7.80469 99.6885" stroke="#48FF91" stroke-width="0.7" stroke-linecap="round" stroke-linejoin="round"/>
<path d="M123.511 114.42C141.606 114.42 156.275 99.7507 156.275 81.6546C156.275 63.5598 141.606 48.8896 123.511 48.8896C105.415 48.8896 90.7461 63.5598 90.7461 81.6559C90.7461 99.7507 105.415 114.42 123.511 114.42Z" fill="#48FF91"/>
<path d="M129.641 73.4845L184.611 53.2637C184.264 53.3911 183.925 53.5377 183.595 53.7026L128.625 73.9234C128.955 73.7585 129.293 73.6117 129.641 73.4845Z" fill="#2D9FFF" stroke="#0500FF" stroke-width="0.7" stroke-linecap="round" stroke-linejoin="round"/>
<path d="M61.3672 22.6105L116.337 2.38975C123.978 -0.418042 132.77 -0.418042 142.048 2.95858C151.326 6.3352 159.67 12.4651 166.926 20.5339C173.44 27.7625 178.975 36.5092 183.11 46.0612L128.14 66.282C124.005 56.73 118.47 47.9923 111.954 40.7547C104.691 32.6846 96.1906 26.5001 87.0776 23.1781C77.7997 19.8014 69.0074 19.8001 61.3672 22.6105Z" fill="url(#paint0_linear_32061_1384)"/>
<path d="M128.146 66.2728L183.117 46.0521C186.053 45.2378 189.357 45.3663 192.815 46.6287C198.671 48.7598 203.923 53.7378 207.637 60.0326C210.784 65.3663 212.853 71.6793 213.283 78.03L158.313 98.2508C157.874 91.9001 155.814 85.5884 152.667 80.2533C148.962 73.9585 143.701 68.9806 137.845 66.8495C134.387 65.5962 131.083 65.4585 128.146 66.2728Z" fill="url(#paint1_linear_32061_1384)"/>
<path d="M241.795 102.952C235.043 91.4976 225.5 82.4392 214.804 78.5418C214.301 78.36 213.795 78.1889 213.285 78.0288L158.314 98.2496C158.818 98.4054 159.321 98.5782 159.834 98.7613C170.53 102.659 180.073 111.717 186.825 123.173C193.595 134.637 197.612 148.581 197.246 162.186C196.899 175.8 192.233 186.578 184.995 192.938C182.596 195.075 179.819 196.744 176.807 197.86L231.777 177.639C234.789 176.523 237.566 174.854 239.965 172.717C247.203 166.35 251.86 155.581 252.217 141.965C252.582 128.36 248.556 114.416 241.795 102.952Z" fill="url(#paint2_linear_32061_1384)"/>
<path d="M186.824 123.175C193.595 134.639 197.612 148.583 197.246 162.188C196.898 175.803 192.231 186.58 184.994 192.94C177.766 199.326 167.93 201.321 157.244 197.432L35.0236 152.947L1.32617 140.687L2.45215 97.748C2.76383 85.8999 6.81578 76.5207 13.1119 70.9766C18.8028 65.9532 26.369 64.0506 34.6495 66.2467C35.7379 49.8869 41.6755 36.9402 50.5976 29.0804C60.0937 20.6999 73.0223 18.074 87.0664 23.1791C96.1794 26.5012 104.69 32.6856 111.944 40.7558C118.459 47.9843 123.995 56.7298 128.13 66.283C131.066 65.4688 134.37 65.5973 137.829 66.8597C143.685 68.9908 148.937 73.9688 152.651 80.2623C155.798 85.5973 157.866 91.9116 158.296 98.261C158.799 98.4168 159.303 98.5895 159.814 98.7727C170.511 102.67 180.053 111.728 186.805 123.184L186.824 123.175ZM181.343 186.754C187.583 181.238 191.591 171.987 191.902 160.248C192.204 148.491 188.755 136.523 182.917 126.625C177.07 116.716 168.873 108.938 159.65 105.58C158.428 105.136 157.178 104.772 155.908 104.491L152.889 103.823L153.026 99.9804C153.182 94.1155 151.543 88.4246 148.753 83.6947C145.963 78.974 142.065 75.2675 137.664 73.6662C134.334 72.4493 131.24 72.6233 128.625 73.9233L126.273 75.0843L124.882 71.5259C121.085 61.8272 115.668 52.9246 109.172 45.7051C102.666 38.496 95.0911 32.9701 86.9119 29.9869C74.3314 25.4116 62.7937 27.7636 54.2664 35.2571C45.747 42.7778 40.2768 55.4038 39.8638 71.4428L39.7729 74.8467L37.1015 73.8765C29.2599 71.0324 22.0872 72.4869 16.7716 77.1623C11.4729 81.8376 8.07033 89.696 7.80409 99.6882L6.86254 135.819L35.208 146.14L157.426 190.625C166.65 193.983 175.095 192.262 181.352 186.754" fill="#48FF91"/>
<path d="M157.424 190.616L149.209 187.625L146.646 193.571L157.241 197.432C160.353 198.567 163.391 199.18 166.309 199.355L169.41 192.153C165.669 192.61 161.624 192.153 157.424 190.616ZM186.822 123.174C185.016 120.106 182.975 117.182 180.719 114.427L178.349 119.936C180.021 122.062 181.549 124.296 182.924 126.625C186.136 132.099 188.545 138.005 190.079 144.164L193.18 136.953C191.525 132.163 189.395 127.551 186.822 123.184V123.174Z" fill="#0500FF"/>
<path d="M148.302 74.2687L203.272 54.0479C200.646 51.1207 197.627 48.7687 194.398 47.2869L139.427 67.5077C142.656 68.9986 145.676 71.3414 148.302 74.2687ZM214.793 78.5414C214.29 78.3596 213.784 78.1886 213.275 78.0285L158.304 98.2492C158.807 98.4051 159.31 98.5778 159.823 98.7609C167.436 101.534 174.462 106.932 180.308 113.931L235.278 93.7103C229.423 86.7025 222.406 81.3129 214.793 78.5414ZM241.79 102.956C240.938 101.504 240.032 100.085 239.073 98.7012L184.103 118.922C185.059 120.307 185.966 121.726 186.82 123.177C187.25 123.899 187.662 124.631 188.073 125.382L243.043 105.161C242.64 104.418 242.222 103.683 241.79 102.956ZM142.046 2.95832C140.133 2.25722 138.173 1.69175 136.181 1.26611L81.2109 21.4869C83.1421 21.9064 85.0993 22.4648 87.0759 23.1791C93.1694 25.3934 98.9798 28.8973 104.341 33.3895L159.311 13.1687C153.959 8.68559 148.14 5.1817 142.046 2.95832Z" fill="#F4F4F7"/>
<path d="M61.3672 22.6105L116.337 2.38975C123.978 -0.418042 132.77 -0.418042 142.048 2.95858C151.326 6.3352 159.67 12.4651 166.926 20.5339C173.44 27.7625 178.975 36.5092 183.11 46.0612L128.14 66.282C124.005 56.73 118.47 47.9923 111.954 40.7547C104.691 32.6846 96.1906 26.5001 87.0776 23.1781C77.7997 19.8014 69.0074 19.8001 61.3672 22.6105Z" stroke="#0500FF" stroke-width="0.7" stroke-linecap="round" stroke-linejoin="round"/>
<path d="M128.146 66.2728L183.117 46.0521C186.053 45.2378 189.357 45.3663 192.815 46.6287C198.671 48.7598 203.923 53.7378 207.637 60.0326C210.784 65.3663 212.853 71.6793 213.283 78.03L158.313 98.2508C157.874 91.9001 155.814 85.5884 152.667 80.2533C148.962 73.9585 143.701 68.9806 137.845 66.8495C134.387 65.5962 131.083 65.4585 128.146 66.2728Z" stroke="#0500FF" stroke-width="0.7" stroke-linecap="round" stroke-linejoin="round"/>
<path d="M241.795 102.952C235.043 91.4976 225.5 82.4392 214.804 78.5418C214.302 78.3602 213.795 78.1891 213.286 78.0288L158.314 98.2496C158.818 98.4054 159.321 98.5782 159.834 98.7613C170.53 102.659 180.073 111.717 186.825 123.173C193.595 134.637 197.612 148.581 197.246 162.186C196.899 175.8 192.233 186.578 184.995 192.938C182.596 195.075 179.819 196.744 176.807 197.86L231.777 177.639C234.789 176.523 237.566 174.854 239.965 172.717C247.203 166.35 251.86 155.581 252.217 141.965C252.582 128.36 248.556 114.416 241.795 102.952Z" stroke="#0500FF" stroke-width="0.7" stroke-linecap="round" stroke-linejoin="round"/>
<path d="M181.343 186.754C187.583 181.238 191.591 171.987 191.902 160.248C192.204 148.491 188.755 136.523 182.917 126.625C177.07 116.716 168.873 108.938 159.65 105.58C158.428 105.136 157.178 104.772 155.908 104.491L152.889 103.823L153.026 99.9804C153.182 94.1155 151.543 88.4246 148.753 83.6947C145.963 78.974 142.065 75.2675 137.664 73.6662C134.334 72.4493 131.24 72.6233 128.625 73.9233L126.273 75.0843L124.882 71.5259C121.085 61.8272 115.668 52.9246 109.172 45.7051C102.666 38.496 95.0911 32.9701 86.9119 29.9869C74.3314 25.4116 62.7937 27.7636 54.2664 35.2571C45.747 42.7778 40.2768 55.4038 39.8638 71.4428L39.7729 74.8467L37.1015 73.8765C29.2599 71.0324 22.0872 72.4869 16.7716 77.1623C11.4729 81.8376 8.07033 89.696 7.80409 99.6882L6.86254 135.819L35.208 146.14L157.426 190.625C166.65 193.983 175.095 192.262 181.352 186.754M186.824 123.175C193.595 134.639 197.612 148.583 197.246 162.188C196.898 175.803 192.231 186.58 184.994 192.94C177.766 199.326 167.93 201.321 157.244 197.432L35.0236 152.947L1.32617 140.687L2.45215 97.748C2.76383 85.8999 6.81578 76.5207 13.1119 70.9766C18.8028 65.9532 26.369 64.0506 34.6495 66.2467C35.7379 49.8869 41.6755 36.9402 50.5976 29.0804C60.0937 20.6999 73.0223 18.074 87.0664 23.1791C96.1794 26.5012 104.69 32.6856 111.944 40.7558C118.459 47.9843 123.995 56.7298 128.13 66.283C131.066 65.4688 134.37 65.5973 137.829 66.8597C143.685 68.9908 148.937 73.9688 152.651 80.2623C155.798 85.5973 157.866 91.9116 158.296 98.261C158.799 98.4168 159.303 98.5895 159.814 98.7727C170.511 102.67 180.053 111.728 186.805 123.184L186.824 123.175Z" stroke="#0500FF" stroke-width="0.7" stroke-linecap="round" stroke-linejoin="round"/>
<path d="M35.2082 146.13L16.9549 139.487L14.3926 145.434L35.025 152.945L48.2549 157.758L50.8173 151.811L35.2082 146.13Z" fill="#0500FF"/>
</g>
<defs>
<linearGradient id="paint0_linear_32061_1384" x1="121.379" y1="32.1352" x2="146.513" y2="96.2742" gradientUnits="userSpaceOnUse">
<stop stop-color="#48FF91"/>
<stop offset="0.16" stop-color="#46F997"/>
<stop offset="0.37" stop-color="#42EAA9"/>
<stop offset="0.62" stop-color="#3AD0C6"/>
<stop offset="0.9" stop-color="#31ADEE"/>
<stop offset="1" stop-color="#2D9FFF"/>
</linearGradient>
<linearGradient id="paint1_linear_32061_1384" x1="177.453" y1="91.178" x2="169.337" y2="66.0261" gradientUnits="userSpaceOnUse">
<stop stop-color="#48FF91"/>
<stop offset="0.16" stop-color="#46F997"/>
<stop offset="0.37" stop-color="#42EAA9"/>
<stop offset="0.62" stop-color="#3AD0C6"/>
<stop offset="0.9" stop-color="#31ADEE"/>
<stop offset="1" stop-color="#2D9FFF"/>
</linearGradient>
<linearGradient id="paint2_linear_32061_1384" x1="200.439" y1="126.485" x2="212.205" y2="156.504" gradientUnits="userSpaceOnUse">
<stop stop-color="#48FF91"/>
<stop offset="0.16" stop-color="#46F997"/>
<stop offset="0.37" stop-color="#42EAA9"/>
<stop offset="0.62" stop-color="#3AD0C6"/>
<stop offset="0.9" stop-color="#31ADEE"/>
<stop offset="1" stop-color="#2D9FFF"/>
</linearGradient>
<clipPath id="clip0_32061_1384">
<rect width="253.247" height="200" fill="white"/>
</clipPath>
</defs>
</svg>
