<svg width="246" height="200" viewBox="0 0 246 200" fill="none" xmlns="http://www.w3.org/2000/svg">
<path d="M104.418 198.09C105.33 199.043 106.941 198.512 107.109 197.206C108.19 188.858 110.93 166.264 110.93 151.48C110.93 133.053 98.86 134.744 98.86 106.72C98.86 78.6948 105.254 51.6669 105.254 51.6669C104.263 51.6669 64.3562 49.6226 24.3803 20.3062C24.3803 20.3062 17.5195 49.4302 17.5195 77.4543C17.5195 105.48 29.5904 103.788 29.5904 122.214C29.5904 137.385 26.7107 160.767 25.6917 168.562C25.6561 168.832 25.6916 169.107 25.7947 169.36C25.8978 169.612 26.0649 169.834 26.2795 170.002C26.4942 170.17 26.749 170.28 27.0188 170.319C27.2886 170.359 27.5642 170.328 27.8183 170.229L64.2297 156.144L104.422 198.085L104.418 198.09Z" fill="url(#paint0_linear_32061_1448)"/>
<path d="M36.5567 155.726L35.3086 167.329M40.5972 154.105L39.3478 165.714M44.6364 152.49L43.3909 164.1M48.677 150.872L47.4326 162.477M52.7213 149.253L51.4757 160.862M56.758 147.636L55.5137 159.239M60.801 146.015L59.5567 157.624M64.8402 144.399L63.5947 156.008M68.6137 148.298L67.4111 159.475M72.3833 152.199L71.1769 163.409M76.1567 156.099L74.9491 167.342M79.9263 159.996L78.7187 171.272M83.7023 163.901L82.4896 175.205M87.4706 167.801L86.258 179.091M91.2428 171.699L90.0213 183.069M95.0175 175.6L93.7921 187.003M98.9099 179.237L97.6592 190.842" stroke="#FFF465" stroke-width="0.575949" stroke-miterlimit="10"/>
<path d="M94.8653 50.4264C81.7539 48.2226 57.8957 42.2175 32.9159 26.1694C31.3412 33.4884 26.5488 57.6656 26.5488 81.0859C26.5488 109.115 38.6197 107.419 38.6197 125.845C38.6197 134.885 37.5944 145.888 36.5526 155.726L64.802 144.412L98.9058 179.235C99.9539 169.364 100.992 157.305 100.992 148.204C100.992 129.778 88.9222 131.469 88.9222 103.444C88.9222 79.9732 93.4045 57.2099 94.8615 50.4264H94.8653Z" fill="url(#paint1_linear_32061_1448)" stroke="#0500FF" stroke-width="0.575949" stroke-linecap="round" stroke-linejoin="round"/>
<path d="M103.23 53.5318C97.0325 56.6799 88.6794 62.4496 92.3338 68.6837C95.6882 74.3964 103.23 53.5318 103.23 53.5318ZM25.4351 24.6989C25.4351 24.6989 26.3136 34.1939 26.7832 41.0065C27.2541 47.8192 23.387 54.8521 20.873 57.5015L25.4401 24.6989H25.4351ZM26.1237 23.9331C27.2503 31.5027 30.8313 31.9711 30.7224 29.4812C30.5958 26.5496 26.1237 23.9331 26.1237 23.9331Z" fill="#1B1B1C"/>
<path d="M104.418 198.09C105.33 199.043 106.941 198.512 107.109 197.206C108.19 188.858 110.93 166.264 110.93 151.48C110.93 133.053 98.86 134.744 98.86 106.72C98.86 78.6948 105.254 51.6669 105.254 51.6669C104.263 51.6669 64.3562 49.6226 24.3803 20.3062C24.3803 20.3062 17.5195 49.4302 17.5195 77.4543C17.5195 105.48 29.5904 103.788 29.5904 122.214C29.5904 137.385 26.7107 160.767 25.6917 168.562C25.6561 168.832 25.6916 169.107 25.7947 169.36C25.8978 169.612 26.0649 169.834 26.2795 170.002C26.4942 170.17 26.749 170.28 27.0188 170.319C27.2886 170.359 27.5642 170.328 27.8183 170.229L64.2297 156.144L104.422 198.085L104.418 198.09Z" stroke="#0500FF" stroke-width="0.575949" stroke-miterlimit="10"/>
<path d="M106.97 50.3846C106.97 51.5454 106.021 52.4985 104.856 52.4985C103.692 52.4985 102.742 51.5492 102.742 50.3846V47.8808H106.966V50.3846H106.97ZM27.222 19.6391C27.222 20.7998 26.2726 21.753 25.1081 21.753C23.9422 21.753 22.9941 20.8036 22.9941 19.6391V17.1353H27.2157V19.6391H27.2195H27.222Z" fill="#48FF91" stroke="#0500FF" stroke-width="0.575949" stroke-miterlimit="10"/>
<path d="M9.2275 8.41279C10.2022 5.73558 9.5351 3.03558 7.73763 2.38115C5.94016 1.72672 3.69459 3.36722 2.71991 6.04444C1.74522 8.72165 2.41231 11.4217 4.20852 12.0761C6.00598 12.7305 8.25282 11.09 9.2275 8.41279Z" fill="url(#paint2_linear_32061_1448)" stroke="#0500FF" stroke-width="0.575949" stroke-miterlimit="10"/>
<path d="M119.639 42.181L8.73422 4.69867C7.57852 4.27589 6.13169 5.33158 5.50637 7.0531C4.88105 8.77209 5.3089 10.5101 6.4646 10.9328L115.515 53.5075C182.072 79.4936 201.367 99.405 195.88 114.481L208.138 80.8037L220.395 47.1278C214.908 62.2037 187.334 65.0556 119.638 42.1759L119.639 42.181Z" fill="url(#paint3_linear_32061_1448)" stroke="#0500FF" stroke-width="0.575949" stroke-miterlimit="10"/>
<path d="M114.768 48.8012L6.47461 8.73535C6.48853 8.96573 6.53157 9.19105 6.61638 9.40244C6.75562 9.73662 7.02524 9.8075 7.3341 9.92902L112.019 50.7986C147.637 64.705 179.514 80.2328 190.281 93.3822L191.494 77.1834C191.494 77.1834 153.58 63.1594 114.768 48.7974V48.8012ZM182.364 82.6429C168.205 73.6936 172.64 74.5202 182.449 79.424C193.185 84.7898 192.509 89.0569 182.364 82.6429Z" fill="#1B1B1C"/>
<path d="M232.356 89.6241C239.561 69.8279 234.502 49.8127 221.055 44.9178C207.608 40.0241 190.866 52.1038 183.661 71.9C176.456 91.6975 181.516 111.713 194.963 116.606C208.409 121.501 225.151 109.42 232.356 89.6241Z" fill="#FFAEFE" stroke="#0500FF" stroke-width="0.575949" stroke-linecap="round" stroke-linejoin="round"/>
<path d="M230.708 88.872C237.478 70.2733 232.84 51.51 220.349 46.9632C207.858 42.4176 192.244 53.8088 185.474 72.4075C178.705 91.0075 183.343 109.77 195.834 114.316C208.325 118.863 223.939 107.471 230.708 88.872Z" fill="#1B1B1C"/>
<path d="M198.08 58.8229C211.039 58.1938 217.935 53.89 220.393 47.1343M186.297 91.1887C195.82 99.9976 198.339 107.725 195.877 114.486" stroke="#48FF91" stroke-width="0.575949" stroke-miterlimit="10"/>
<path d="M218.591 84.6152C223.211 71.9215 220.044 59.1164 211.518 56.0127C202.991 52.9089 192.334 60.6835 187.714 73.3772C183.094 86.0709 186.261 98.8759 194.787 101.98C203.314 105.084 213.971 97.3089 218.591 84.6152Z" stroke="#48FF91" stroke-width="0.575949" stroke-linecap="round" stroke-linejoin="round"/>
<path d="M197.647 59.147C198.385 59.1976 199.113 59.3495 199.818 59.6027C205.77 61.7685 207.983 70.7141 204.756 79.5799C201.528 88.4444 194.087 93.8761 188.133 91.7103C187.437 91.4545 186.779 91.1035 186.179 90.6672M191.341 66.0913C191.707 68.5811 191.416 71.466 190.368 74.3419C189.321 77.2166 187.69 79.6128 185.811 81.2862" stroke="#48FF91" stroke-width="0.575949" stroke-linecap="round" stroke-linejoin="round"/>
<path d="M191.347 66.0912C212.441 70.1419 223.586 66.571 232.46 61.5533M185.812 81.29C204.577 91.7482 211.535 101.149 215.106 110.695M230.752 89.0419L187.711 73.3799M197.449 53.9697C198.084 56.4178 196.603 59.6495 194.791 61.7355M182.693 94.5014C184.752 93.0317 185.696 89.6064 185.649 86.8431" stroke="#48FF91" stroke-width="0.575949" stroke-miterlimit="10"/>
<path d="M23.9272 9.83911C22.6158 9.35936 20.9765 10.5581 20.2677 12.5125C19.7082 14.053 19.8917 15.6366 20.6386 16.4733L25.8715 18.5163C24.8284 17.8404 24.4854 16.0644 25.1297 14.2923C25.7588 12.5682 27.15 11.291 28.3664 11.3429L23.9272 9.84417V9.83911ZM105.464 37.3948C103.416 36.9492 101.231 38.7151 100.137 41.7125C99.2728 44.0897 99.5398 46.3644 100.602 47.6935L106.394 49.953C105.347 48.5581 105.15 46.1151 106.015 43.7429C107.165 40.5809 109.622 38.748 111.746 39.5189L105.46 37.3948H105.464Z" fill="#48FF91" stroke="#0500FF" stroke-width="0.575949" stroke-miterlimit="10"/>
<defs>
<linearGradient id="paint0_linear_32061_1448" x1="61.4347" y1="116.929" x2="71.1221" y2="98.8074" gradientUnits="userSpaceOnUse">
<stop stop-color="#FFAEFE"/>
<stop offset="1" stop-color="#FFF465"/>
</linearGradient>
<linearGradient id="paint1_linear_32061_1448" x1="70.445" y1="92.6859" x2="58.5678" y2="118.93" gradientUnits="userSpaceOnUse">
<stop stop-color="#48FF91"/>
<stop offset="1" stop-color="#2D9FFF"/>
</linearGradient>
<linearGradient id="paint2_linear_32061_1448" x1="2.71738" y1="6.04824" x2="9.23003" y2="8.41912" gradientUnits="userSpaceOnUse">
<stop stop-color="#FFAEFE"/>
<stop offset="1" stop-color="#FFF465"/>
</linearGradient>
<linearGradient id="paint3_linear_32061_1448" x1="106.976" y1="43.5075" x2="109.075" y2="37.7417" gradientUnits="userSpaceOnUse">
<stop stop-color="#FFAEFE"/>
<stop offset="1" stop-color="#FFF465"/>
</linearGradient>
</defs>
</svg>
