<svg width="229" height="200" viewBox="0 0 229 200" fill="none" xmlns="http://www.w3.org/2000/svg">
<path d="M98.5272 99.8779L79.8308 69.257C71.4862 55.5863 51.1272 45.3735 35.3754 46.951C29.3312 47.5558 25.03 49.796 23.2629 53.2522C21.4292 56.8418 22.2846 62.0153 25.5995 67.4418L44.2951 98.0626L29.4862 106.79L10.7907 76.1687C4.37459 65.6626 3.29347 54.5381 7.8252 45.6506C12.2654 36.9478 21.6678 31.2675 33.6244 30.0707C56.0397 27.8265 82.8437 41.2056 94.6405 60.5293L113.336 91.151L98.5272 99.8779Z" fill="#1B1B1C"/>
<path d="M17.0938 75.8506C11.5371 67.1615 11.7516 56.6378 8.28332 53.3984C7.30179 60.5053 9.14758 68.3438 13.7412 75.8739L19.7733 85.7559C20.5685 84.3711 20.7259 81.531 17.0938 75.8506Z" fill="url(#paint0_linear_32061_1298)"/>
<path d="M97.591 85.7476C92.2496 77.3653 85.7331 67.9814 87.4866 67.0167C89.2392 66.0513 95.5725 75.9244 102.585 85.2472L97.591 85.7476Z" fill="url(#paint1_linear_32061_1298)"/>
<path d="M81.0636 68.0593L99.2837 96.8962L101.294 95.395L79.8925 61.5629C75.0725 53.9452 69.8765 43.0416 49.5986 38.0087C25.1889 31.9525 13.1271 46.8199 20.8709 58.9878C19.6114 52.9276 24.1014 46.3798 34.0516 45.3838C50.5825 43.7292 71.0379 52.1886 81.0628 68.0537L81.0636 68.0593Z" fill="url(#paint2_linear_32061_1298)"/>
<path d="M63.51 103.073L54.4627 90.0659L33.5341 92.1615C24.8048 93.0354 14.31 99.9808 10.2105 107.603C8.23535 111.272 8.09639 114.451 9.4474 116.663L50.6185 184.091L102.222 162.247L63.5157 103.072L63.51 103.073Z" fill="#1B1B1C" stroke="#48FF91" stroke-width="0.555823" stroke-linecap="round" stroke-linejoin="round"/>
<path d="M174.738 154.988L159.833 182.694C158.775 184.659 156.554 186.017 153.389 186.334L168.295 158.627C171.46 158.311 173.68 156.948 174.738 154.988Z" fill="url(#paint3_linear_32061_1298)"/>
<path d="M168.293 158.625L153.387 186.332L94.7344 192.204L109.645 164.497L168.293 158.625Z" fill="url(#paint4_linear_32061_1298)"/>
<path d="M109.646 164.497L94.7344 192.204L80.7207 185.194L95.6267 157.488L109.646 164.497Z" fill="#F4F4F7"/>
<path d="M95.627 157.488L80.721 185.194L59.7925 187.289C51.0623 188.164 47.28 182.646 51.3796 175.025C55.48 167.408 65.974 160.457 74.7033 159.583L95.6326 157.487L95.627 157.488Z" fill="url(#paint5_linear_32061_1298)"/>
<path d="M168.292 158.626L109.638 164.498L95.6255 157.489L74.697 159.584C65.9669 160.458 55.4729 167.404 51.3733 175.026C47.2729 182.643 51.0609 188.164 59.7854 187.291L80.7139 185.195L94.7275 192.205L153.381 186.333C156.547 186.015 158.767 184.653 159.826 182.693L174.731 154.987C173.674 156.952 171.453 158.309 168.287 158.627L168.292 158.626Z" stroke="#0500FF" stroke-width="0.555823" stroke-linecap="round" stroke-linejoin="round"/>
<path d="M75.8446 87.9251L60.9402 115.631L18.6237 119.867C9.89439 120.742 6.11206 115.225 10.2117 107.603C14.3113 99.9813 24.806 93.0352 33.5345 92.1613L75.851 87.9243L75.8446 87.9251Z" fill="#1B1B1C" stroke="#48FF91" stroke-width="0.555823" stroke-linecap="round" stroke-linejoin="round"/>
<mask id="mask0_32061_1298" style="mask-type:luminance" maskUnits="userSpaceOnUse" x="54" y="128" width="18" height="11">
<path d="M71.1186 128.91L56.7676 137.745C56.2214 138.08 55.5555 138.278 54.7676 138.329L69.1194 129.495C69.9065 129.443 70.5724 129.245 71.1186 128.91Z" fill="white"/>
</mask>
<g mask="url(#mask0_32061_1298)">
<path d="M71.1193 128.911L56.7683 137.746C56.4875 137.916 56.186 138.05 55.8711 138.143L70.2229 129.308C70.5385 129.218 70.8402 129.084 71.1193 128.911Z" fill="#1B1B1C" stroke="#48FF91" stroke-width="0.555823" stroke-linecap="round" stroke-linejoin="round"/>
<path d="M70.2234 129.308L55.8715 138.142C55.5122 138.246 55.1427 138.311 54.7695 138.335L69.1213 129.5C69.4949 129.479 69.8647 129.414 70.2234 129.308Z" fill="#1B1B1C" stroke="#48FF91" stroke-width="0.555823" stroke-linecap="round" stroke-linejoin="round"/>
</g>
<path d="M71.1205 128.911L56.7687 137.745C56.2225 138.08 55.5567 138.278 54.7695 138.329L69.1213 129.495C69.9085 129.443 70.5744 129.245 71.1205 128.911Z" stroke="#48FF91" stroke-width="0.555823" stroke-linecap="round" stroke-linejoin="round"/>
<path d="M56.4493 109.873L42.0927 118.709L42.002 112.888L56.3538 104.053L56.4493 109.873Z" fill="#1B1B1C" stroke="#48FF91" stroke-width="0.555823" stroke-linecap="round" stroke-linejoin="round"/>
<mask id="mask1_32061_1298" style="mask-type:luminance" maskUnits="userSpaceOnUse" x="47" y="118" width="18" height="15">
<path d="M64.3053 124.032L49.9535 132.866C50.3888 132.598 50.6218 132.042 50.6105 131.177C50.5784 129.37 49.4427 127.883 47.6113 127.073L61.9623 118.239C63.8001 119.053 64.9358 120.535 64.9615 122.342C64.9728 123.202 64.7463 123.762 64.3053 124.032Z" fill="white"/>
</mask>
<g mask="url(#mask1_32061_1298)">
<path d="M64.9621 122.343C64.9569 121.876 64.873 121.413 64.7139 120.974C64.6129 120.698 64.4826 120.434 64.3251 120.186L49.9733 129.02C50.134 129.268 50.2617 129.534 50.3629 129.81C50.4633 130.084 50.5316 130.368 50.5741 130.666C50.5918 130.834 50.6087 131.002 50.6103 131.178C50.6215 132.038 50.395 132.598 49.9541 132.867L64.3051 124.032C64.7412 123.763 64.9733 123.208 64.9621 122.343ZM62.0745 118.294L47.7227 127.129C47.6826 127.111 47.6464 127.092 47.6055 127.075L61.9573 118.24C61.9974 118.258 62.0392 118.276 62.0745 118.294Z" fill="#1B1B1C" stroke="#48FF91" stroke-width="0.555823" stroke-linecap="round" stroke-linejoin="round"/>
</g>
<path d="M64.3053 124.031L49.9535 132.866C50.3888 132.597 50.6218 132.042 50.6105 131.177C50.5784 129.37 49.4419 127.882 47.6113 127.073L61.9623 118.239C63.7993 119.052 64.9358 120.534 64.9615 122.342C64.9728 123.202 64.7463 123.762 64.3053 124.031Z" stroke="#48FF91" stroke-width="0.555823" stroke-linecap="round" stroke-linejoin="round"/>
<path d="M48.7855 106.484L34.4337 115.319L34.3438 109.498L48.6956 100.664L48.7855 106.484ZM62.0739 118.292L53.204 114.366L38.8522 123.201L47.7277 127.127C48.702 127.583 49.4731 128.23 49.9678 129.019L64.3189 120.185C63.8185 119.396 63.0538 118.749 62.0795 118.292H62.0739Z" fill="#1B1B1C" stroke="#48FF91" stroke-width="0.555823" stroke-linecap="round" stroke-linejoin="round"/>
<mask id="mask2_32061_1298" style="mask-type:luminance" maskUnits="userSpaceOnUse" x="48" y="129" width="18" height="16">
<path d="M65.0641 135.659L50.7131 144.494C51.1589 144.219 51.3958 143.647 51.3814 142.755C51.3524 140.866 50.1765 139.322 48.2344 138.463L62.5854 129.628C64.5284 130.487 65.7043 132.03 65.7324 133.919C65.7468 134.813 65.5107 135.385 65.0641 135.659Z" fill="white"/>
</mask>
<g mask="url(#mask2_32061_1298)">
<path d="M65.7324 133.919C65.7302 133.739 65.717 133.559 65.693 133.381C65.6501 133.076 65.576 132.776 65.4721 132.487C65.3673 132.201 65.2324 131.928 65.0697 131.671L50.7179 140.507C51.1453 141.179 51.3752 141.958 51.3814 142.754C51.3958 143.646 51.1589 144.218 50.7131 144.494L65.0641 135.659C65.5107 135.384 65.7468 134.812 65.7324 133.919ZM62.7147 129.687L48.3629 138.521C48.3227 138.503 48.2802 138.48 48.2344 138.462L62.5854 129.628C62.6263 129.646 62.6745 129.668 62.7147 129.687Z" fill="#1B1B1C" stroke="#48FF91" stroke-width="0.555823" stroke-linecap="round" stroke-linejoin="round"/>
</g>
<path d="M65.0649 135.658L50.7139 144.494C51.1597 144.218 51.3966 143.646 51.3822 142.754C51.3533 140.865 50.1773 139.321 48.2344 138.462L62.5862 129.628C64.5284 130.486 65.7051 132.03 65.7332 133.919C65.7476 134.812 65.5115 135.384 65.0649 135.658Z" stroke="#48FF91" stroke-width="0.555823" stroke-linecap="round" stroke-linejoin="round"/>
<mask id="mask3_32061_1298" style="mask-type:luminance" maskUnits="userSpaceOnUse" x="49" y="141" width="23" height="12">
<path d="M71.9107 142.622L57.5597 151.456C55.9428 152.452 53.3235 152.275 49.877 150.75L64.2288 141.916C67.6745 143.441 70.289 143.618 71.9107 142.622Z" fill="white"/>
</mask>
<g mask="url(#mask3_32061_1298)">
<path d="M71.9109 142.622L57.5591 151.457C57.2669 151.634 56.9529 151.772 56.625 151.868L70.976 143.034C71.3174 142.933 71.6274 142.793 71.9109 142.622Z" fill="#1B1B1C" stroke="#48FF91" stroke-width="0.555823" stroke-linecap="round" stroke-linejoin="round"/>
</g>
<path d="M71.9107 142.622L57.5597 151.456C55.9428 152.452 53.3235 152.275 49.877 150.75L64.2288 141.916C67.6745 143.441 70.289 143.618 71.9107 142.622Z" stroke="#48FF91" stroke-width="0.555823" stroke-linecap="round" stroke-linejoin="round"/>
<path d="M62.5863 129.626L53.3823 125.552L39.0312 134.386L48.2345 138.461L49.0039 138.126L48.3638 138.519C49.3959 138.997 50.1975 139.679 50.718 140.499L65.0698 131.664C64.5493 130.844 63.7469 130.162 62.7148 129.684" fill="#1B1B1C"/>
<path d="M62.5863 129.626L53.3823 125.552L39.0312 134.386L48.2345 138.461L49.0039 138.126L48.3638 138.519C49.3959 138.997 50.1975 139.679 50.718 140.499L65.0698 131.664C64.5493 130.844 63.7469 130.162 62.7148 129.684" stroke="#48FF91" stroke-width="0.555823" stroke-linecap="round" stroke-linejoin="round"/>
<path d="M68.5931 143.195C67.3401 143.064 65.8782 142.645 64.2284 141.911L61.2268 140.583L46.875 149.417L49.8766 150.746C51.5264 151.474 52.9891 151.898 54.2421 152.031C55.1497 152.126 55.9481 152.068 56.6252 151.868L70.977 143.034C70.2943 143.234 69.4959 143.292 68.5931 143.195Z" fill="#48FF91" stroke="#48FF91" stroke-width="0.555823" stroke-linecap="round" stroke-linejoin="round"/>
<path d="M45.1244 110.789L30.7718 119.623L25.8457 117.446L40.2023 108.61L45.1244 110.789Z" fill="#1B1B1C" stroke="#48FF91" stroke-width="0.555823" stroke-linecap="round" stroke-linejoin="round"/>
<path d="M40.2034 108.61L25.8467 117.446L25.752 111.477L40.1094 102.642L40.2034 108.61ZM56.9046 138.675L42.5528 147.51L39.2122 146.035L53.564 137.2L56.9046 138.675Z" fill="#1B1B1C" stroke="#48FF91" stroke-width="0.555823" stroke-linecap="round" stroke-linejoin="round"/>
<path d="M61.3142 146.316L46.9632 155.15L42.6387 153.236L56.9953 144.401L61.3142 146.316Z" fill="#48FF91" stroke="#48FF91" stroke-width="0.555823" stroke-linecap="round" stroke-linejoin="round"/>
<path d="M56.9948 144.401L42.6373 153.236L42.5514 147.508L56.9024 138.674L56.9948 144.401ZM45.3875 127.657L31.0365 136.492L30.7715 119.622L45.1225 110.787L45.3875 127.657Z" fill="#1B1B1C" stroke="#48FF91" stroke-width="0.555823" stroke-linecap="round" stroke-linejoin="round"/>
<path d="M53.654 142.927L39.3022 151.761L34.9785 149.847L49.3295 141.013L53.654 142.927Z" fill="#48FF91" stroke="#48FF91" stroke-width="0.555823" stroke-linecap="round" stroke-linejoin="round"/>
<path d="M49.3306 141.011L34.9796 149.847L34.888 144.119L49.2447 135.284L49.3306 141.011ZM40.5619 131.443L26.2109 140.277L26.1113 134.316L40.468 125.48L40.5619 131.443Z" fill="#1B1B1C" stroke="#48FF91" stroke-width="0.555823" stroke-linecap="round" stroke-linejoin="round"/>
<path d="M45.4813 133.621L40.5608 131.442L26.209 140.278L31.1303 142.455L34.8869 144.119L49.2435 135.284L45.4813 133.621Z" fill="#48FF91" stroke="#48FF91" stroke-width="0.555823" stroke-linecap="round" stroke-linejoin="round"/>
<path d="M69.1197 129.499C72.0956 131.921 73.7414 134.932 73.7936 138.228C73.8731 143.084 70.3599 144.631 64.2281 141.916L61.2265 140.588L61.3181 146.316L56.9944 144.401L56.9028 138.674L53.5679 137.198L53.6595 142.925L49.335 141.011L49.2434 135.283L45.4868 133.62L40.5663 131.442L40.4723 125.479L45.3936 127.657L45.1285 110.787L40.2073 108.609L40.1133 102.641L45.0338 104.819L48.7904 106.483L48.6996 100.663L53.0241 102.577L53.1141 108.398L56.449 109.873L56.3591 104.053L60.6828 105.967L60.7735 111.787L63.1727 112.852C69.2691 115.549 72.7984 120.136 72.8771 124.872C72.9197 127.709 71.6097 129.337 69.1205 129.504L69.1197 129.499ZM62.6787 135.43C64.6209 136.289 65.7655 135.856 65.7374 133.918C65.7093 132.029 64.5326 130.484 62.5904 129.626L53.3864 125.552L53.4803 131.355L62.6852 135.43M53.2145 114.365L53.3028 119.961L62.0563 123.834C63.894 124.647 64.9968 124.198 64.9719 122.346C64.9414 120.54 63.8048 119.052 61.9735 118.243L53.2201 114.369" fill="#1B1B1C"/>
<path d="M62.6787 135.43C64.6209 136.289 65.7655 135.856 65.7374 133.918C65.7093 132.029 64.5326 130.484 62.5904 129.626L53.3864 125.552L53.4803 131.355L62.6852 135.43M53.2145 114.365L53.3028 119.961L62.0563 123.834C63.894 124.647 64.9968 124.198 64.9719 122.346C64.9414 120.54 63.8048 119.052 61.9735 118.243L53.2201 114.369M69.1197 129.499C72.0948 131.921 73.7414 134.932 73.7936 138.228C73.8731 143.084 70.3599 144.631 64.2281 141.916L61.2265 140.588L61.3181 146.316L56.9944 144.401L56.9028 138.674L53.5679 137.198L53.6595 142.925L49.335 141.011L49.2434 135.283L45.4868 133.62L40.5663 131.442L40.4723 125.479L45.3936 127.657L45.1285 110.787L40.2073 108.609L40.1133 102.641L45.0338 104.819L48.7904 106.483L48.6996 100.663L53.0241 102.577L53.1141 108.398L56.449 109.873L56.3591 104.053L60.6828 105.967L60.7735 111.787L63.1727 112.852C69.2691 115.549 72.7984 120.136 72.8771 124.872C72.9197 127.709 71.6097 129.337 69.1205 129.504L69.1197 129.499Z" stroke="#48FF91" stroke-width="0.555823" stroke-linecap="round" stroke-linejoin="round"/>
<path d="M72.7116 179.998C79.9871 175.729 84.0441 169.239 81.7734 165.504C79.5019 161.769 71.763 162.201 64.4875 166.47C57.212 170.739 53.1541 177.228 55.4256 180.964C57.6971 184.699 65.4361 184.267 72.7116 179.998Z" fill="#F4F4F7"/>
<path d="M78.0554 171.762C77.0169 173.972 74.7132 176.352 71.5976 178.178C66.2883 181.293 60.6434 181.605 58.9871 178.88C57.3309 176.157 60.2899 171.423 65.6 168.309C70.204 165.605 75.0667 165.014 77.3494 166.683" stroke="#1B1B1C" stroke-width="0.555823" stroke-linecap="round" stroke-linejoin="round"/>
<path d="M81.7361 170.817L68.222 172.17L66.8887 174.651L80.3361 173.304C80.818 172.565 81.4148 171.644 81.7361 170.817Z" fill="#1B1B1C"/>
<path d="M168.292 158.626C174.829 157.972 177.336 152.862 173.885 147.208L140.368 92.3115C136.918 86.6634 128.822 82.6152 122.286 83.269L43.543 91.1525L80.9293 152.396L70.9044 153.377C62.1751 154.251 51.6803 161.197 47.5807 168.819C45.6056 172.488 45.4667 175.667 46.8177 177.879L50.6104 184.085C49.2586 181.868 49.3976 178.69 51.3727 175.021C55.4731 167.404 65.9671 160.453 74.6964 159.579L95.6249 157.483L109.639 164.493L168.292 158.621V158.626Z" fill="url(#paint6_linear_32061_1298)"/>
<path d="M121.475 156.107C119.387 156.317 116.798 155.041 115.716 153.273L107.39 139.64C106.308 137.873 107.134 136.254 109.223 136.046L151.848 131.777C153.937 131.568 156.525 132.845 157.608 134.612L165.933 148.246C167.015 150.013 166.189 151.631 164.101 151.84L121.475 156.107Z" fill="#1B1B1C"/>
<path d="M76.5078 87.8588L60.0821 118.245L72.0001 137.771L100.265 85.4805L76.5078 87.8588ZM68.7616 88.6347L56.1953 111.884L58.5969 115.823L73.5568 88.1544L68.7616 88.6347Z" fill="#F4F4F7"/>
<path d="M168.292 158.626C174.829 157.972 177.336 152.862 173.885 147.208L140.368 92.3115C136.918 86.6634 128.822 82.6152 122.286 83.269L43.543 91.1525L80.9293 152.396L70.9044 153.377C62.1751 154.251 51.6803 161.197 47.5807 168.819C45.6056 172.488 45.4667 175.667 46.8177 177.879L50.6104 184.085C49.2586 181.868 49.3976 178.69 51.3727 175.021C55.4731 167.404 65.9671 160.453 74.6964 159.579L95.6249 157.483L109.639 164.493L168.292 158.621V158.626Z" stroke="#0500FF" stroke-width="0.555823" stroke-linecap="round" stroke-linejoin="round"/>
<path d="M129.208 145.792L126.404 144.97L127.944 143.72L126.786 142.897L125.247 144.148L123.989 142.081L122.751 142.205L124.016 144.277L121.218 143.455L121.136 144.401L123.94 145.217L122.401 146.473L123.558 147.295L125.097 146.039L126.356 148.112L127.593 147.988L126.329 145.916L129.128 146.738L129.208 145.792ZM140.699 144.641L137.901 143.819L139.435 142.569L138.278 141.747L136.744 142.997L135.48 140.93L134.248 141.053L135.507 143.126L132.708 142.304L132.628 143.25L135.431 144.066L133.892 145.323L135.05 146.144L136.589 144.888L137.853 146.961L139.085 146.837L137.821 144.765L140.625 145.586L140.699 144.641ZM152.197 143.49L149.393 142.668L150.928 141.418L149.776 140.595L148.236 141.846L146.973 139.779L145.74 139.903L147.005 141.975L144.201 141.153L144.126 142.099L146.924 142.916L145.39 144.171L146.548 144.993L148.081 143.737L149.345 145.81L150.577 145.687L149.319 143.614L152.117 144.435L152.197 143.49ZM205.737 26.9252C208.765 27.5573 211.087 30.579 210.924 33.6746L209.026 69.3011C208.863 72.3967 206.272 74.3967 203.245 73.7645L88.2617 49.8184C85.2344 49.1862 82.9107 46.1637 83.0746 43.0682L84.9734 7.44166C85.1364 4.34608 87.7268 2.34688 90.7541 2.97901L205.732 26.9268L205.737 26.9252Z" fill="#48FF91"/>
<path d="M149.631 62.6008L203.235 73.7679C206.263 74.4 208.852 72.4008 209.015 69.3052L210.915 33.6779C211.078 30.5823 208.761 27.5582 205.728 26.9285L184.314 22.4683L149.625 62.6032L149.631 62.6008Z" fill="#F4F4F7"/>
<path d="M108.971 24.4274L108.783 27.8764L111.796 26.7527L113.078 29.5608L110.063 30.6788L112.898 33.013L111.349 35.2266L108.516 32.8973L108.334 36.3447L105.503 35.7503L105.685 32.3045L102.673 33.4274L101.385 30.6218L104.405 29.5021L101.57 27.1672L103.12 24.9535L105.954 27.2885L106.134 23.8354L108.971 24.4274ZM128.322 28.4595L128.14 31.9069L131.146 30.7856L132.435 33.5905L129.423 34.715L132.249 37.0451L130.7 39.2595L127.873 36.9278L127.691 40.3752L124.854 39.7832L125.036 36.3367L122.023 37.4595L120.741 34.6523L123.761 33.5318L120.921 31.1993L122.476 28.984L125.305 31.3206L125.492 27.8716L128.322 28.4595ZM172.274 53.433L172.106 56.5174L157.121 53.3977L157.283 50.3158L172.274 53.433ZM147.679 32.4893L147.491 35.9383L150.504 34.8138L151.786 37.6218L148.774 38.7455L151.606 41.0748L150.056 43.2885L147.224 40.9591L147.042 44.4065L144.213 43.8178L144.393 40.3656L141.38 41.4893L140.092 38.6836L143.112 37.5632L140.278 35.229L141.827 33.0146L144.662 35.3495L144.843 31.9029L147.679 32.4893Z" fill="#1B1B1C"/>
<path d="M209.521 24.415L94.5461 0.47205C93.1534 0.186107 91.8538 0.447151 90.8441 1.12105L87.0586 3.62627C88.0698 2.95719 89.3678 2.69052 90.7598 2.97647L205.737 26.9251C208.765 27.5572 211.088 30.5789 210.924 33.6745L209.026 69.301C208.94 70.9781 208.136 72.3315 206.943 73.1227L210.729 70.6182C211.923 69.8271 212.72 68.4761 212.812 66.7965L214.711 31.17C214.874 28.0745 212.557 25.0504 209.524 24.4206L209.521 24.415Z" fill="#48FF91"/>
<path d="M212.224 25.7446L208.438 28.249C209.184 28.8688 209.795 29.6368 210.23 30.5045L214.015 28.0001C213.58 27.1326 212.97 26.3647 212.224 25.7446ZM214.703 31.1663C214.722 30.7033 214.692 30.2397 214.612 29.7832L210.826 32.2876C210.911 32.7422 210.947 33.2073 210.917 33.6707L209.018 69.298C208.932 70.9752 208.129 72.3278 206.936 73.1197L210.722 70.6145C211.915 69.8233 212.713 68.4723 212.804 66.7936L214.703 31.1663Z" fill="#1B1B1C"/>
<path d="M209.521 24.415L94.5461 0.47205C93.1534 0.186107 91.8538 0.447151 90.8441 1.12105L87.0586 3.62627C88.0698 2.95719 89.3678 2.69052 90.7598 2.97647L205.737 26.9251C208.765 27.5572 211.087 30.5789 210.924 33.6745L209.026 69.301C208.94 70.9781 208.136 72.3315 206.943 73.1227L210.729 70.6182C211.923 69.8271 212.72 68.4761 212.812 66.7965L214.711 31.17C214.874 28.0745 212.557 25.0504 209.524 24.4206L209.521 24.415Z" stroke="#0500FF" stroke-width="0.228112" stroke-miterlimit="10"/>
<path d="M205.737 26.9252C208.765 27.5573 211.087 30.579 210.924 33.6746L209.026 69.3011C208.863 72.3967 206.272 74.3967 203.245 73.7645L88.2617 49.8184C85.2344 49.1862 82.9107 46.1637 83.0746 43.0682L84.9734 7.44166C85.1364 4.34608 87.7268 2.34688 90.7541 2.97901L205.732 26.9268L205.737 26.9252Z" stroke="#0500FF" stroke-width="0.228112" stroke-miterlimit="10"/>
<path d="M82.766 109.508L197.744 133.457C199.135 133.743 200.435 133.482 201.445 132.808L205.231 130.304C204.219 130.972 202.922 131.239 201.529 130.953L86.5492 106.998C83.5218 106.366 81.1989 103.345 81.362 100.249L83.2616 64.6225C83.3467 62.9454 84.15 61.5919 85.3443 60.8008L81.558 63.3052C80.3644 64.0964 79.566 65.4482 79.4753 67.1269L77.5765 102.753C77.4134 105.849 79.7307 108.873 82.7636 109.503L82.766 109.508Z" fill="#48FF91"/>
<path d="M80.063 108.179L83.8485 105.675C83.1018 105.055 82.4919 104.287 82.0573 103.419L78.271 105.924C78.7056 106.791 79.3163 107.559 80.063 108.179ZM77.5778 102.76C77.5587 103.223 77.5891 103.687 77.6686 104.144L81.4549 101.64C81.3679 101.184 81.3371 100.719 81.3634 100.256L83.2606 64.6226C83.3465 62.9463 84.1497 61.5929 85.3433 60.8018L81.5569 63.3062C80.3634 64.0973 79.5658 65.4483 79.4742 67.1271L77.5754 102.754L77.5778 102.76Z" fill="#1B1B1C"/>
<path d="M82.766 109.508L197.744 133.457C199.135 133.743 200.435 133.482 201.445 132.808L205.231 130.304C204.219 130.972 202.922 131.239 201.529 130.953L86.5492 106.998C83.5218 106.366 81.1989 103.345 81.362 100.249L83.2616 64.6225C83.3467 62.9454 84.15 61.5919 85.3443 60.8008L81.558 63.3052C80.3644 64.0964 79.566 65.4482 79.4753 67.1269L77.5765 102.753C77.4134 105.849 79.7307 108.873 82.7636 109.503L82.766 109.508Z" stroke="#0500FF" stroke-width="0.228112" stroke-miterlimit="10"/>
<path d="M204.026 84.106L89.0481 60.1575C87.6553 59.8715 86.3565 60.1334 85.3461 60.8073L81.5605 63.3117C82.5726 62.6426 83.8698 62.3759 85.2618 62.6619L200.239 86.6105C203.267 87.2426 205.59 90.2643 205.427 93.3599L203.528 128.986C203.442 130.663 202.638 132.017 201.445 132.808L205.231 130.304C206.425 129.512 207.222 128.161 207.314 126.482L209.213 90.8554C209.376 87.7599 207.059 84.7358 204.026 84.106Z" fill="#48FF91"/>
<path d="M206.727 85.4346L202.941 87.939C203.688 88.5589 204.298 89.3269 204.733 90.1944L208.519 87.69C208.084 86.8227 207.474 86.0548 206.727 85.4346ZM209.205 90.8514C209.224 90.3882 209.193 89.9243 209.114 89.4675L205.327 91.9719C205.412 92.4265 205.448 92.8924 205.419 93.3559L203.519 128.982C203.434 130.659 202.631 132.013 201.438 132.804L205.223 130.3C206.417 129.508 207.214 128.157 207.306 126.478L209.205 90.8514Z" fill="#1B1B1C"/>
<path d="M204.026 84.106L89.0481 60.1575C87.6553 59.8715 86.3565 60.1334 85.3461 60.8073L81.5605 63.3117C82.5726 62.6426 83.8698 62.3759 85.2618 62.6619L200.239 86.6105C203.267 87.2426 205.59 90.2643 205.427 93.3599L203.528 128.986C203.442 130.663 202.638 132.017 201.445 132.808L205.231 130.304C206.425 129.512 207.222 128.161 207.314 126.482L209.213 90.8554C209.376 87.7599 207.059 84.7358 204.026 84.106Z" stroke="#0500FF" stroke-width="0.228112" stroke-miterlimit="10"/>
<path d="M200.239 86.6105C203.268 87.2426 205.59 90.2643 205.427 93.3599L203.528 128.986C203.365 132.082 200.775 134.082 197.747 133.45L82.7663 109.509C79.7382 108.877 77.4153 105.855 77.5784 102.759L79.4836 67.1301C79.6467 64.0346 82.237 62.0354 85.2643 62.6675L200.242 86.6161L200.239 86.6105Z" stroke="#0500FF" stroke-width="0.228112" stroke-miterlimit="10"/>
<path d="M153.098 87.8667C154.213 87.2438 155.383 86.7225 156.592 86.3093C157.215 86.0989 157.449 85.3125 157.115 84.5519C156.781 83.7912 156.006 83.3479 155.39 83.5623C154.074 84.0096 152.802 84.5763 151.589 85.2555C145.075 88.8964 140.724 95.5141 139.336 103.885C138.395 109.557 138.882 115.629 140.696 121.57L143.4 122.133C141.501 116.388 140.946 110.48 141.857 104.973C143.13 97.2884 147.129 91.2105 153.103 87.8651L153.098 87.8667ZM181.03 118.68L177.711 112.958C174.622 107.627 168.694 105.2 164.501 107.551C160.305 109.896 159.403 116.147 162.49 121.472L165.486 126.64L165.547 126.752L168.553 127.379C168.24 126.745 167.902 126.113 167.54 125.489L164.544 120.322C162.29 116.434 162.95 111.877 166.009 110.163C169.069 108.448 173.396 110.223 175.652 114.111L178.97 119.833C180.932 123.213 182.514 126.8 183.686 130.529L186.36 131.083C185.084 126.749 183.293 122.584 181.028 118.675L181.03 118.68Z" fill="#1B1B1C"/>
<path d="M185.416 116.222L182.098 110.5C177.227 102.1 167.883 98.2738 161.266 101.971C154.651 105.674 153.226 115.519 158.097 123.92L158.934 125.369L162.031 126.014L160.151 122.769C156.118 115.804 157.294 107.65 162.775 104.583C168.255 101.516 175.997 104.683 180.036 111.647L183.355 117.369C185.973 121.87 187.999 126.69 189.384 131.709L192.023 132.257C190.605 126.773 188.392 121.352 185.414 116.216L185.416 116.222Z" fill="#1B1B1C"/>
<path d="M152.376 111.287C152.733 106.737 154.59 102.85 157.61 100.345C158.112 99.9294 158.121 99.0459 157.627 98.38C157.132 97.7093 156.323 97.5077 155.821 97.9238C152.369 100.786 150.239 105.231 149.831 110.431C149.482 114.882 150.429 119.622 152.5 124.029L155.463 124.646C153.138 120.394 152.037 115.677 152.382 111.284L152.376 111.287ZM194.222 126.002C193.567 126.128 193.248 126.861 193.509 127.635C194.08 129.364 194.581 131.116 195.01 132.885L197.651 133.439C197.157 131.329 196.567 129.243 195.883 127.187C195.619 126.407 194.879 125.881 194.222 126.002ZM186.488 108.047C183.076 102.162 177.822 97.6306 172.074 95.6186C171.372 95.372 170.745 95.7816 170.677 96.527C170.61 97.2724 171.125 98.0828 171.827 98.3294C176.851 100.09 181.446 104.053 184.427 109.2L187.746 114.921C189.005 117.092 190.147 119.329 191.168 121.621C191.508 122.38 192.28 122.818 192.902 122.602C192.954 122.585 193.005 122.563 193.052 122.535C193.558 122.252 193.725 121.529 193.415 120.835C192.34 118.417 191.137 116.058 189.812 113.767L186.493 108.045L186.488 108.047ZM166.223 94.4852C164.223 94.417 162.293 94.6933 160.502 95.3093C159.879 95.5198 159.646 96.3118 159.978 97.0668C160.312 97.8274 161.088 98.2708 161.709 98.0547C163.276 97.519 164.961 97.2796 166.709 97.3358C166.901 97.3439 167.079 97.2989 167.223 97.2154C167.606 97.0017 167.815 96.5182 167.722 95.9519C167.592 95.1632 166.919 94.5045 166.229 94.4836L166.223 94.4852Z" fill="#1B1B1C"/>
<path d="M190.876 105.589C182.444 91.0425 166.263 84.4209 154.806 90.8281C154.418 91.0434 154.043 91.2731 153.671 91.5148C153.127 91.8691 153.051 92.7325 153.5 93.4329C153.948 94.1341 154.755 94.4193 155.297 94.0594C155.627 93.845 155.971 93.6329 156.32 93.4377C166.643 87.6666 181.222 93.6305 188.816 106.741L192.134 112.463C192.552 113.187 193.355 113.512 193.919 113.195C194.489 112.876 194.607 112.037 194.188 111.312L190.87 105.59L190.876 105.589ZM149.747 94.9622C147.989 96.996 146.632 99.4144 145.701 102.154C145.477 102.828 145.828 103.704 146.5 104.114C146.912 104.368 147.347 104.385 147.668 104.199C147.873 104.088 148.03 103.898 148.121 103.635C148.958 101.166 150.182 98.9855 151.763 97.1558C152.195 96.657 152.094 95.755 151.538 95.1502C150.983 94.5454 150.177 94.457 149.746 94.9566L149.747 94.9622ZM147.042 108.533C147.129 107.788 146.632 106.976 145.93 106.711C145.228 106.446 144.594 106.839 144.505 107.579C143.934 112.517 144.641 117.745 146.488 122.775L149.261 123.352C147.269 118.475 146.483 113.347 147.04 108.528L147.042 108.533ZM176.109 85.2458C175.416 84.9333 174.743 85.257 174.61 85.9815C174.476 86.7052 174.924 87.547 175.619 87.8594C179.6 89.6811 183.296 92.2883 186.596 95.6168C187.056 96.0843 187.657 96.2008 188.089 95.963C188.197 95.9052 188.295 95.8193 188.379 95.7124C188.785 95.1775 188.645 94.2771 188.067 93.6996C184.474 90.0731 180.449 87.2265 176.112 85.2514L176.109 85.2458ZM170.272 83.1839C167.013 82.3662 163.794 82.1092 160.701 82.4193C160.031 82.4875 159.656 83.1767 159.864 83.963C160.077 84.7486 160.792 85.3277 161.465 85.2658C164.301 84.9839 167.26 85.2193 170.254 85.9719C170.54 86.0418 170.805 86.004 171.022 85.8883C171.334 85.7124 171.54 85.3582 171.546 84.9028C171.554 84.1349 170.978 83.3711 170.276 83.1952L170.272 83.1839ZM176.639 121.133L173.321 115.411C172.016 113.154 169.504 112.127 167.723 113.121C165.942 114.116 165.566 116.759 166.871 119.016L169.867 124.184C170.591 125.435 171.242 126.727 171.816 128.054L174.624 128.637C173.867 126.703 172.966 124.829 171.926 123.031L168.931 117.863C168.46 117.05 168.597 116.088 169.237 115.732C169.883 115.373 170.787 115.744 171.259 116.558L174.577 122.28C175.88 124.525 176.984 126.879 177.877 129.316L180.609 129.888C179.578 126.846 178.246 123.913 176.633 121.135L176.639 121.133Z" fill="#1B1B1C"/>
<defs>
<linearGradient id="paint0_linear_32061_1298" x1="11.5757" y1="46.4442" x2="18.6962" y2="117.561" gradientUnits="userSpaceOnUse">
<stop stop-color="#FFAEFE"/>
<stop offset="1" stop-color="#FFF465"/>
</linearGradient>
<linearGradient id="paint1_linear_32061_1298" x1="90.9476" y1="38.4986" x2="98.0673" y2="109.616" gradientUnits="userSpaceOnUse">
<stop stop-color="#FFAEFE"/>
<stop offset="1" stop-color="#FFF465"/>
</linearGradient>
<linearGradient id="paint2_linear_32061_1298" x1="56.6211" y1="41.934" x2="63.7415" y2="113.051" gradientUnits="userSpaceOnUse">
<stop stop-color="#FFAEFE"/>
<stop offset="1" stop-color="#FFF465"/>
</linearGradient>
<linearGradient id="paint3_linear_32061_1298" x1="162.207" y1="169.64" x2="164.85" y2="171.152" gradientUnits="userSpaceOnUse">
<stop stop-color="#FFAEFE"/>
<stop offset="1" stop-color="#FFF465"/>
</linearGradient>
<linearGradient id="paint4_linear_32061_1298" x1="133.595" y1="170.962" x2="117.219" y2="207.278" gradientUnits="userSpaceOnUse">
<stop stop-color="#FFAEFE"/>
<stop offset="1" stop-color="#FFF465"/>
</linearGradient>
<linearGradient id="paint5_linear_32061_1298" x1="82.1394" y1="147.749" x2="65.7579" y2="184.061" gradientUnits="userSpaceOnUse">
<stop stop-color="#FFAEFE"/>
<stop offset="1" stop-color="#FFF465"/>
</linearGradient>
<linearGradient id="paint6_linear_32061_1298" x1="105.742" y1="140.765" x2="141.08" y2="156.304" gradientUnits="userSpaceOnUse">
<stop stop-color="#FFAEFE"/>
<stop offset="1" stop-color="#FFF465"/>
</linearGradient>
</defs>
</svg>
