<svg width="172" height="200" viewBox="0 0 172 200" fill="none" xmlns="http://www.w3.org/2000/svg">
<path d="M98.2554 12.7456L59.2216 24.0656L8.35938 72.5794L66.9683 170.073C66.9683 170.073 105.339 201.361 140.134 198.426L154.661 166.498L98.2634 12.7305L98.2554 12.7456Z" fill="url(#paint0_linear_32061_1423)"/>
<path d="M133.039 198.678C137.507 198.741 140.124 198.443 140.124 198.443C140.124 198.443 137.505 198.842 133.039 198.678Z" fill="white"/>
<path d="M59.4945 13.0793L92.8056 13.9193L22.9452 63.53C18.0963 66.9717 16.5923 73.5068 19.4554 78.7273L52.2607 138.498C81.0163 190.894 117.822 198.094 133.045 198.67C115.134 198.415 67.3221 192.363 37.5514 138.124L4.0945 77.1593C2.8435 74.8808 2.38578 72.2509 2.7934 69.6837C3.20101 67.1165 4.45082 64.7578 6.34606 62.9788L59.5016 13.0713L59.4945 13.0793Z" fill="url(#paint1_linear_32061_1423)"/>
<path d="M37.5524 138.131L4.09286 77.167C3.2208 75.5773 2.73283 73.8056 2.66797 71.9937L18.0209 73.1279C18.0217 75.0301 18.4857 76.9563 19.4546 78.735L52.26 138.506C81.0155 190.902 117.822 198.102 133.044 198.677C115.133 198.423 67.3222 192.371 37.5524 138.131Z" fill="url(#paint2_linear_32061_1423)"/>
<path d="M4.09286 77.1679C3.2207 75.5779 2.73272 73.8059 2.66797 71.9937L18.0209 73.1279C18.0217 75.0301 18.4857 76.9563 19.4546 78.735L43.236 122.065L25.3337 115.885L4.08664 77.175L4.09286 77.1679Z" fill="url(#paint3_linear_32061_1423)"/>
<path d="M49.727 133.88L31.8257 127.701L28.6328 121.88L46.5341 128.059L49.727 133.88Z" fill="url(#paint4_linear_32061_1423)"/>
<path d="M133.038 198.678C137.505 198.742 140.123 198.444 140.123 198.444C140.123 198.444 137.503 198.843 133.038 198.678ZM59.4945 13.0793L92.8056 13.9193L22.9452 63.53C18.0963 66.9717 16.5923 73.5068 19.4554 78.7273L52.2607 138.498C81.0163 190.894 117.822 198.094 133.045 198.67C115.134 198.415 67.3221 192.363 37.5514 138.124L4.0945 77.1593C2.8435 74.8808 2.38578 72.2509 2.7934 69.6837C3.20101 67.1165 4.45082 64.7578 6.34606 62.9788L59.5016 13.0713L59.4945 13.0793Z" stroke="#0500FF" stroke-width="0.547556" stroke-linecap="round" stroke-linejoin="round"/>
<path d="M133.039 198.678C137.507 198.741 140.124 198.443 140.124 198.443C140.124 198.443 137.505 198.842 133.039 198.678Z" fill="white" stroke="#0500FF" stroke-width="0.547556" stroke-linecap="round" stroke-linejoin="round"/>
<path d="M52.2665 138.506L19.4612 78.7353C16.599 73.5148 18.0941 66.9797 22.951 63.5379L92.8114 13.9272L120.925 88.6446C148.72 162.528 140.144 198.451 140.144 198.451C140.144 198.451 137.526 198.749 133.058 198.685C117.835 198.11 81.0292 190.91 52.2736 138.514L52.2665 138.506Z" stroke="#0500FF" stroke-width="0.547556" stroke-linecap="round" stroke-linejoin="round"/>
<path d="M120.914 88.6365L92.8008 13.9201L124.425 2.78406C126.693 1.9863 129.184 2.10872 131.363 3.12507C133.542 4.14143 135.236 5.97087 136.083 8.2214L161.021 74.5183C188.815 148.402 140.125 198.451 140.125 198.451C140.125 198.451 148.708 162.536 120.907 88.6445L120.914 88.6365Z" fill="#F4F4F7"/>
<path d="M126.214 2.22392L92.8021 13.9199L59.498 13.0799L111.505 1.85059L126.214 2.22392Z" fill="#2D9FFF" stroke="#0500FF" stroke-width="0.547556" stroke-linecap="round" stroke-linejoin="round"/>
<path d="M134.645 132.673L167.652 98.354C178.546 158.959 140.13 198.443 140.13 198.443C140.13 198.443 145.277 176.838 134.645 132.704L134.645 132.673Z" fill="url(#paint5_linear_32061_1423)"/>
<path d="M165.415 88.2551L133.758 129.108L131.881 122.256L161.019 74.5103L165.415 88.2551Z" fill="url(#paint6_linear_32061_1423)"/>
<path d="M120.914 88.6365L92.8008 13.9201L124.425 2.78406C126.693 1.9863 129.184 2.10872 131.363 3.12507C133.542 4.14143 135.236 5.97087 136.083 8.2214L161.021 74.5183C188.815 148.402 140.125 198.451 140.125 198.451C140.125 198.451 148.708 162.536 120.907 88.6445L120.914 88.6365Z" stroke="#0500FF" stroke-width="0.547556" stroke-linecap="round" stroke-linejoin="round"/>
<defs>
<linearGradient id="paint0_linear_32061_1423" x1="104.132" y1="108.795" x2="35.9736" y2="146.394" gradientUnits="userSpaceOnUse">
<stop stop-color="#FFAEFE"/>
<stop offset="1" stop-color="#FFF465"/>
</linearGradient>
<linearGradient id="paint1_linear_32061_1423" x1="115.519" y1="45.2046" x2="82.8109" y2="105.825" gradientUnits="userSpaceOnUse">
<stop stop-color="#0500FF"/>
<stop offset="0.15" stop-color="#0912FF"/>
<stop offset="0.47" stop-color="#1541FF"/>
<stop offset="0.9" stop-color="#288CFF"/>
<stop offset="1" stop-color="#2D9FFF"/>
</linearGradient>
<linearGradient id="paint2_linear_32061_1423" x1="52.8635" y1="106.493" x2="86.316" y2="173.404" gradientUnits="userSpaceOnUse">
<stop stop-color="#0500FF"/>
<stop offset="0.15" stop-color="#0912FF"/>
<stop offset="0.47" stop-color="#1541FF"/>
<stop offset="0.9" stop-color="#288CFF"/>
<stop offset="1" stop-color="#2D9FFF"/>
</linearGradient>
<linearGradient id="paint3_linear_32061_1423" x1="19.2466" y1="76.9288" x2="25.3275" y2="110.447" gradientUnits="userSpaceOnUse">
<stop stop-color="#FFAEFE"/>
<stop offset="1" stop-color="#FFF465"/>
</linearGradient>
<linearGradient id="paint4_linear_32061_1423" x1="29.6017" y1="75.0505" x2="35.6835" y2="108.568" gradientUnits="userSpaceOnUse">
<stop stop-color="#FFAEFE"/>
<stop offset="1" stop-color="#FFF465"/>
</linearGradient>
<linearGradient id="paint5_linear_32061_1423" x1="131.472" y1="123.65" x2="175.255" y2="171.94" gradientUnits="userSpaceOnUse">
<stop stop-color="#0500FF"/>
<stop offset="0.15" stop-color="#0912FF"/>
<stop offset="0.47" stop-color="#1541FF"/>
<stop offset="0.9" stop-color="#288CFF"/>
<stop offset="1" stop-color="#2D9FFF"/>
</linearGradient>
<linearGradient id="paint6_linear_32061_1423" x1="151.07" y1="105.87" x2="194.852" y2="154.16" gradientUnits="userSpaceOnUse">
<stop stop-color="#0500FF"/>
<stop offset="0.15" stop-color="#0912FF"/>
<stop offset="0.47" stop-color="#1541FF"/>
<stop offset="0.9" stop-color="#288CFF"/>
<stop offset="1" stop-color="#2D9FFF"/>
</linearGradient>
</defs>
</svg>
